<svg version="1.1" id="Layer_1" xmlns="http://www.w3.org/2000/svg" xmlns:xlink="http://www.w3.org/1999/xlink" x="0px" y="0px"
	 width="100%" viewBox="0 0 512 512" enable-background="new 0 0 512 512" xml:space="preserve">
<path fill="#010101" opacity="1.000000" stroke="none" 
	d="
M292.000000,513.000000 
	C194.690292,513.000000 97.880577,513.000000 1.035435,513.000000 
	C1.035435,342.398590 1.035435,171.797195 1.035435,1.097890 
	C171.559723,1.097890 342.119537,1.097890 512.839661,1.097890 
	C512.839661,171.666550 512.839661,342.333252 512.839661,513.000000 
	C439.463837,513.000000 365.981903,513.000000 292.000000,513.000000 
M307.236084,306.159241 
	C296.526794,272.266998 285.817505,238.374771 275.139404,204.581268 
	C298.462097,190.401535 299.515533,163.973068 285.993469,147.525589 
	C272.094208,130.619308 246.704315,129.393250 230.994034,144.813766 
	C213.493469,161.991547 216.569016,185.170578 239.133423,204.958099 
	C227.762177,240.866562 216.353729,276.864441 204.963470,312.868073 
	C190.858749,357.451935 176.720734,402.025421 162.765854,446.656128 
	C161.660141,450.192474 160.128464,451.422760 156.520859,451.165009 
	C152.210297,450.856964 147.857437,451.026550 143.526871,451.139954 
	C137.074905,451.308899 132.938980,455.108215 132.955719,460.683746 
	C132.972351,466.230225 137.225082,470.057617 143.597153,470.104309 
	C151.596649,470.162903 159.596924,470.116852 167.596863,470.116608 
	C235.096390,470.114563 302.595917,470.119476 370.095428,470.100739 
	C377.149750,470.098755 381.221588,466.715057 381.392456,460.902435 
	C381.567108,454.961273 377.276123,451.203278 370.102295,451.098633 
	C365.936523,451.037872 361.740784,450.780975 357.611115,451.170319 
	C353.986023,451.512085 352.821136,449.889587 351.837952,446.771515 
	C337.131317,400.129791 322.310120,353.524170 307.236084,306.159241 
M61.706299,132.142120 
	C55.622326,156.827393 55.476887,181.590012 61.048515,206.353943 
	C67.115356,233.318863 78.756859,257.488739 97.617470,277.950653 
	C102.781593,283.553192 108.311203,284.362549 112.779900,280.082825 
	C116.772530,276.259064 116.268478,270.762909 111.558266,265.537506 
	C108.996437,262.695496 106.437408,259.832672 104.109390,256.800873 
	C63.857761,204.380859 66.906403,125.828712 111.028427,76.465042 
	C112.553146,74.759178 114.142609,72.869270 114.905342,70.775032 
	C116.451958,66.528488 114.515335,62.042618 110.819313,60.048649 
	C106.799538,57.880016 102.060318,58.744797 98.633591,62.489597 
	C80.510254,82.295212 68.455444,105.353989 61.706299,132.142120 
M447.003693,113.453148 
	C439.891174,94.539139 429.705170,77.483414 416.071350,62.540710 
	C412.008759,58.088078 405.808014,57.724495 401.880585,61.505024 
	C398.080170,65.163269 398.160980,70.431915 402.040833,74.873665 
	C438.941650,117.118690 446.974182,165.298767 430.910156,218.110397 
	C425.363922,236.344101 415.444153,252.310501 402.446808,266.326141 
	C398.172852,270.934967 398.123108,276.367859 402.009613,280.122528 
	C406.047668,284.023621 411.740784,283.604004 416.189697,279.056763 
	C417.004517,278.223877 417.786407,277.353149 418.524292,276.451447 
	C458.394409,227.728699 466.775787,173.431549 447.003693,113.453148 
M135.652283,93.931358 
	C133.838608,95.869087 131.883743,97.694176 130.233719,99.762466 
	C117.630875,115.560036 109.320534,133.319229 106.552002,153.417297 
	C101.767532,188.150009 110.462662,219.076126 133.658401,245.539444 
	C135.611160,247.767288 139.813660,249.368790 142.708069,249.028076 
	C145.335876,248.718735 148.433182,245.815094 149.839767,243.243591 
	C151.997284,239.299225 149.700882,235.743088 146.841461,232.524673 
	C116.177872,198.011063 116.180092,143.410721 146.763977,109.085381 
	C150.823959,104.528732 151.528732,99.919945 148.760513,96.029221 
	C146.115967,92.312286 141.824387,91.449547 135.652283,93.931358 
M364.535767,237.361588 
	C363.692169,243.122986 365.239594,247.001648 369.461853,248.594559 
	C374.164856,250.368851 378.097076,249.102463 381.515961,245.264069 
	C418.389038,203.866364 418.371887,137.473907 381.406403,96.075470 
	C377.393646,91.581512 371.417419,91.020973 367.237885,94.746567 
	C363.078186,98.454475 362.872986,103.782639 367.225433,108.396889 
	C398.418854,141.466736 398.616058,199.409271 367.083557,233.398071 
	C366.197052,234.353622 365.580383,235.559540 364.535767,237.361588 
M253.658432,63.010670 
	C268.974365,62.437881 283.395935,65.512703 296.825195,73.145393 
	C298.824432,74.281685 301.631104,74.781525 303.910675,74.466110 
	C307.836304,73.922920 310.454041,71.308189 311.114777,67.205376 
	C311.862244,62.563725 310.121185,59.119759 305.997467,56.795448 
	C287.895935,46.592602 268.468689,42.478481 247.829285,44.406975 
	C233.564240,45.739864 220.120361,49.956692 207.767548,57.292816 
	C203.049286,60.094906 201.741455,65.314461 204.198883,69.825279 
	C206.568130,74.174240 211.928085,75.884911 216.729706,73.790169 
	C217.642151,73.392113 218.497482,72.860847 219.371384,72.377022 
	C229.747925,66.632118 240.889130,63.620369 253.658432,63.010670 
M157.089294,190.362183 
	C160.776199,197.402527 164.065506,204.692719 168.280838,211.401001 
	C171.426041,216.406235 177.533524,216.990082 181.874329,213.744995 
	C186.109100,210.579178 186.553925,204.884644 182.947769,200.002884 
	C169.261566,181.475586 169.172791,159.529999 182.636871,141.133698 
	C183.690857,139.693619 184.655121,138.018204 185.064407,136.309250 
	C186.101517,131.979095 183.869797,127.799683 179.921646,126.015480 
	C175.666992,124.092758 171.291992,125.219261 168.063812,129.540436 
	C154.499130,147.697784 150.975632,167.770584 157.089294,190.362183 
M351.049652,204.524551 
	C364.726532,180.492249 362.991943,150.713913 346.696381,129.790314 
	C342.849762,124.851227 337.163605,123.804764 332.751831,127.224007 
	C328.355682,130.631195 328.306976,135.608521 331.672028,140.945770 
	C334.832306,145.958282 338.086182,151.204208 339.757538,156.807220 
	C344.436890,172.494156 341.408142,187.052597 331.462555,200.142929 
	C327.896790,204.836227 328.349091,210.157455 332.404419,213.513321 
	C336.462769,216.871704 342.527802,216.153397 346.142639,211.722092 
	C347.819855,209.666061 349.191895,207.361053 351.049652,204.524551 
M271.397614,107.857361 
	C273.142517,108.374863 274.859253,109.178879 276.637848,109.353897 
	C281.203674,109.803185 285.128998,106.822876 286.219208,102.383965 
	C287.437683,97.422783 285.411713,93.163055 280.371948,91.173325 
	C265.727112,85.391434 250.905151,85.242401 236.047379,90.375732 
	C229.234085,92.729721 226.384842,97.555611 228.291138,103.167572 
	C230.165298,108.684898 235.614761,110.700043 242.330643,108.234978 
	C251.705688,104.793854 261.124084,104.460350 271.397614,107.857361 
z"/>
<path fill="#FBFBFA" opacity="1.000000" stroke="none" 
	d="
M307.376007,306.534637 
	C322.310120,353.524170 337.131317,400.129791 351.837952,446.771515 
	C352.821136,449.889587 353.986023,451.512085 357.611115,451.170319 
	C361.740784,450.780975 365.936523,451.037872 370.102295,451.098633 
	C377.276123,451.203278 381.567108,454.961273 381.392456,460.902435 
	C381.221588,466.715057 377.149750,470.098755 370.095428,470.100739 
	C302.595917,470.119476 235.096390,470.114563 167.596863,470.116608 
	C159.596924,470.116852 151.596649,470.162903 143.597153,470.104309 
	C137.225082,470.057617 132.972351,466.230225 132.955719,460.683746 
	C132.938980,455.108215 137.074905,451.308899 143.526871,451.139954 
	C147.857437,451.026550 152.210297,450.856964 156.520859,451.165009 
	C160.128464,451.422760 161.660141,450.192474 162.765854,446.656128 
	C176.720734,402.025421 190.858749,357.451935 204.963470,312.868073 
	C216.353729,276.864441 227.762177,240.866562 239.133423,204.958099 
	C216.569016,185.170578 213.493469,161.991547 230.994034,144.813766 
	C246.704315,129.393250 272.094208,130.619308 285.993469,147.525589 
	C299.515533,163.973068 298.462097,190.401535 275.139404,204.581268 
	C285.817505,238.374771 296.526794,272.266998 307.376007,306.534637 
M319.100647,408.498444 
	C319.292725,408.463043 319.484833,408.427673 319.676941,408.392303 
	C319.646210,408.270355 319.619690,408.044922 319.584045,408.043488 
	C319.368195,408.034637 319.150208,408.076996 319.609558,407.520142 
	C312.756897,385.855042 305.904266,364.189941 298.872070,341.957245 
	C289.445435,350.338898 280.544220,358.253326 271.447174,366.341888 
	C284.149506,377.591888 296.462769,388.531677 308.821350,399.420013 
	C312.150146,402.352783 315.616577,405.129303 319.100647,408.498444 
M258.499969,451.115967 
	C283.270782,451.115967 308.041626,451.115967 334.021942,451.115967 
	C332.336609,448.060852 331.593384,445.292755 329.805786,443.687805 
	C305.780609,422.116730 281.609833,400.707855 257.353333,379.150452 
	C256.592377,379.727692 255.908661,380.178955 255.301407,380.716614 
	C231.985077,401.361053 208.630524,421.962891 185.441269,442.749176 
	C183.317276,444.653046 182.256790,447.743378 180.192795,451.115326 
	C206.897064,451.115326 232.198502,451.115326 258.499969,451.115967 
M282.035431,331.532349 
	C284.754211,329.079193 287.647003,326.785248 290.107269,324.095612 
	C291.111237,322.997986 291.897980,320.855255 291.547668,319.509827 
	C289.916107,313.243835 287.974762,307.047485 285.833649,300.935059 
	C285.432739,299.790527 283.620239,298.389709 282.447388,298.378876 
	C264.816742,298.215820 247.184113,298.265961 229.385284,298.265961 
	C227.163605,305.285004 224.827911,312.035919 222.998032,318.921265 
	C222.580902,320.490814 223.345871,323.123962 224.532639,324.245850 
	C231.061890,330.418030 237.901489,336.261200 244.613495,342.240997 
	C248.800232,345.971008 252.949661,349.742920 257.160583,353.536316 
	C265.549622,346.114319 273.525604,339.057739 282.035431,331.532349 
M251.811539,227.266678 
	C246.343277,244.418594 240.875015,261.570526 235.345901,278.913361 
	C250.327408,278.913361 264.499176,278.913361 279.110168,278.913361 
	C271.859589,256.109833 264.758270,233.775620 257.195496,209.990128 
	C255.168854,216.450470 253.593185,221.473251 251.811539,227.266678 
M215.392670,342.887268 
	C208.434372,364.549225 201.476074,386.211182 194.517776,407.873138 
	C194.778534,408.133179 195.039291,408.393219 195.300049,408.653290 
	C211.063705,394.650482 226.827362,380.647675 242.999039,366.282440 
	C233.664276,358.140411 224.913681,350.507904 215.392670,342.887268 
M275.197052,176.387222 
	C277.281036,168.016510 274.618011,161.282440 267.837982,156.248032 
	C261.931000,151.861877 253.463593,151.883560 247.177475,155.921387 
	C240.559036,160.172653 237.493851,167.414764 238.965347,175.324005 
	C240.381363,182.934998 247.200577,189.062592 255.255844,189.962265 
	C263.856232,190.922852 271.169403,186.177780 275.197052,176.387222 
z"/>
<path fill="#F9FAF9" opacity="1.000000" stroke="none" 
	d="
M61.793053,131.736801 
	C68.455444,105.353989 80.510254,82.295212 98.633591,62.489597 
	C102.060318,58.744797 106.799538,57.880016 110.819313,60.048649 
	C114.515335,62.042618 116.451958,66.528488 114.905342,70.775032 
	C114.142609,72.869270 112.553146,74.759178 111.028427,76.465042 
	C66.906403,125.828712 63.857761,204.380859 104.109390,256.800873 
	C106.437408,259.832672 108.996437,262.695496 111.558266,265.537506 
	C116.268478,270.762909 116.772530,276.259064 112.779900,280.082825 
	C108.311203,284.362549 102.781593,283.553192 97.617470,277.950653 
	C78.756859,257.488739 67.115356,233.318863 61.048515,206.353943 
	C55.476887,181.590012 55.622326,156.827393 61.793053,131.736801 
z"/>
<path fill="#F9FAF9" opacity="1.000000" stroke="none" 
	d="
M447.118408,113.824104 
	C466.775787,173.431549 458.394409,227.728699 418.524292,276.451447 
	C417.786407,277.353149 417.004517,278.223877 416.189697,279.056763 
	C411.740784,283.604004 406.047668,284.023621 402.009613,280.122528 
	C398.123108,276.367859 398.172852,270.934967 402.446808,266.326141 
	C415.444153,252.310501 425.363922,236.344101 430.910156,218.110397 
	C446.974182,165.298767 438.941650,117.118690 402.040833,74.873665 
	C398.160980,70.431915 398.080170,65.163269 401.880585,61.505024 
	C405.808014,57.724495 412.008759,58.088078 416.071350,62.540710 
	C429.705170,77.483414 439.891174,94.539139 447.118408,113.824104 
z"/>
<path fill="#FAFAF9" opacity="1.000000" stroke="none" 
	d="
M135.967041,93.725975 
	C141.824387,91.449547 146.115967,92.312286 148.760513,96.029221 
	C151.528732,99.919945 150.823959,104.528732 146.763977,109.085381 
	C116.180092,143.410721 116.177872,198.011063 146.841461,232.524673 
	C149.700882,235.743088 151.997284,239.299225 149.839767,243.243591 
	C148.433182,245.815094 145.335876,248.718735 142.708069,249.028076 
	C139.813660,249.368790 135.611160,247.767288 133.658401,245.539444 
	C110.462662,219.076126 101.767532,188.150009 106.552002,153.417297 
	C109.320534,133.319229 117.630875,115.560036 130.233719,99.762466 
	C131.883743,97.694176 133.838608,95.869087 135.967041,93.725975 
z"/>
<path fill="#FAFAFA" opacity="1.000000" stroke="none" 
	d="
M364.686829,237.005142 
	C365.580383,235.559540 366.197052,234.353622 367.083557,233.398071 
	C398.616058,199.409271 398.418854,141.466736 367.225433,108.396889 
	C362.872986,103.782639 363.078186,98.454475 367.237885,94.746567 
	C371.417419,91.020973 377.393646,91.581512 381.406403,96.075470 
	C418.371887,137.473907 418.389038,203.866364 381.515961,245.264069 
	C378.097076,249.102463 374.164856,250.368851 369.461853,248.594559 
	C365.239594,247.001648 363.692169,243.122986 364.686829,237.005142 
z"/>
<path fill="#F9F9F9" opacity="1.000000" stroke="none" 
	d="
M253.185181,63.026253 
	C240.889130,63.620369 229.747925,66.632118 219.371384,72.377022 
	C218.497482,72.860847 217.642151,73.392113 216.729706,73.790169 
	C211.928085,75.884911 206.568130,74.174240 204.198883,69.825279 
	C201.741455,65.314461 203.049286,60.094906 207.767548,57.292816 
	C220.120361,49.956692 233.564240,45.739864 247.829285,44.406975 
	C268.468689,42.478481 287.895935,46.592602 305.997467,56.795448 
	C310.121185,59.119759 311.862244,62.563725 311.114777,67.205376 
	C310.454041,71.308189 307.836304,73.922920 303.910675,74.466110 
	C301.631104,74.781525 298.824432,74.281685 296.825195,73.145393 
	C283.395935,65.512703 268.974365,62.437881 253.185181,63.026253 
z"/>
<path fill="#F8F9F8" opacity="1.000000" stroke="none" 
	d="
M157.006378,189.968597 
	C150.975632,167.770584 154.499130,147.697784 168.063812,129.540436 
	C171.291992,125.219261 175.666992,124.092758 179.921646,126.015480 
	C183.869797,127.799683 186.101517,131.979095 185.064407,136.309250 
	C184.655121,138.018204 183.690857,139.693619 182.636871,141.133698 
	C169.172791,159.529999 169.261566,181.475586 182.947769,200.002884 
	C186.553925,204.884644 186.109100,210.579178 181.874329,213.744995 
	C177.533524,216.990082 171.426041,216.406235 168.280838,211.401001 
	C164.065506,204.692719 160.776199,197.402527 157.006378,189.968597 
z"/>
<path fill="#F9F9F9" opacity="1.000000" stroke="none" 
	d="
M350.875977,204.846725 
	C349.191895,207.361053 347.819855,209.666061 346.142639,211.722092 
	C342.527802,216.153397 336.462769,216.871704 332.404419,213.513321 
	C328.349091,210.157455 327.896790,204.836227 331.462555,200.142929 
	C341.408142,187.052597 344.436890,172.494156 339.757538,156.807220 
	C338.086182,151.204208 334.832306,145.958282 331.672028,140.945770 
	C328.306976,135.608521 328.355682,130.631195 332.751831,127.224007 
	C337.163605,123.804764 342.849762,124.851227 346.696381,129.790314 
	C362.991943,150.713913 364.726532,180.492249 350.875977,204.846725 
z"/>
<path fill="#F9F9F9" opacity="1.000000" stroke="none" 
	d="
M271.016724,107.721710 
	C261.124084,104.460350 251.705688,104.793854 242.330643,108.234978 
	C235.614761,110.700043 230.165298,108.684898 228.291138,103.167572 
	C226.384842,97.555611 229.234085,92.729721 236.047379,90.375732 
	C250.905151,85.242401 265.727112,85.391434 280.371948,91.173325 
	C285.411713,93.163055 287.437683,97.422783 286.219208,102.383965 
	C285.128998,106.822876 281.203674,109.803185 276.637848,109.353897 
	C274.859253,109.178879 273.142517,108.374863 271.016724,107.721710 
z"/>
<path fill="#020202" opacity="1.000000" stroke="none" 
	d="
M257.999939,451.115662 
	C232.198502,451.115326 206.897064,451.115326 180.192795,451.115326 
	C182.256790,447.743378 183.317276,444.653046 185.441269,442.749176 
	C208.630524,421.962891 231.985077,401.361053 255.301407,380.716614 
	C255.908661,380.178955 256.592377,379.727692 257.353333,379.150452 
	C281.609833,400.707855 305.780609,422.116730 329.805786,443.687805 
	C331.593384,445.292755 332.336609,448.060852 334.021942,451.115967 
	C308.041626,451.115967 283.270782,451.115967 257.999939,451.115662 
z"/>
<path fill="#040404" opacity="1.000000" stroke="none" 
	d="
M281.768524,331.766754 
	C273.525604,339.057739 265.549622,346.114319 257.160583,353.536316 
	C252.949661,349.742920 248.800232,345.971008 244.613495,342.240997 
	C237.901489,336.261200 231.061890,330.418030 224.532639,324.245850 
	C223.345871,323.123962 222.580902,320.490814 222.998032,318.921265 
	C224.827911,312.035919 227.163605,305.285004 229.385284,298.265961 
	C247.184113,298.265961 264.816742,298.215820 282.447388,298.378876 
	C283.620239,298.389709 285.432739,299.790527 285.833649,300.935059 
	C287.974762,307.047485 289.916107,313.243835 291.547668,319.509827 
	C291.897980,320.855255 291.111237,322.997986 290.107269,324.095612 
	C287.647003,326.785248 284.754211,329.079193 281.768524,331.766754 
z"/>
<path fill="#040404" opacity="1.000000" stroke="none" 
	d="
M251.914520,226.881348 
	C253.593185,221.473251 255.168854,216.450470 257.195496,209.990128 
	C264.758270,233.775620 271.859589,256.109833 279.110168,278.913361 
	C264.499176,278.913361 250.327408,278.913361 235.345901,278.913361 
	C240.875015,261.570526 246.343277,244.418594 251.914520,226.881348 
z"/>
<path fill="#060606" opacity="1.000000" stroke="none" 
	d="
M215.777893,342.881348 
	C224.913681,350.507904 233.664276,358.140411 242.999039,366.282440 
	C226.827362,380.647675 211.063705,394.650482 195.300049,408.653290 
	C195.039291,408.393219 194.778534,408.133179 194.517776,407.873138 
	C201.476074,386.211182 208.434372,364.549225 215.777893,342.881348 
z"/>
<path fill="#060606" opacity="1.000000" stroke="none" 
	d="
M319.019867,407.977539 
	C315.616577,405.129303 312.150146,402.352783 308.821350,399.420013 
	C296.462769,388.531677 284.149506,377.591888 271.447174,366.341888 
	C280.544220,358.253326 289.445435,350.338898 298.872070,341.957245 
	C305.904266,364.189941 312.756897,385.855042 319.291229,407.778809 
	C318.972900,408.037476 319.019867,407.977539 319.019867,407.977539 
z"/>
<path fill="#040404" opacity="1.000000" stroke="none" 
	d="
M275.091309,176.774017 
	C271.169403,186.177780 263.856232,190.922852 255.255844,189.962265 
	C247.200577,189.062592 240.381363,182.934998 238.965347,175.324005 
	C237.493851,167.414764 240.559036,160.172653 247.177475,155.921387 
	C253.463593,151.883560 261.931000,151.861877 267.837982,156.248032 
	C274.618011,161.282440 277.281036,168.016510 275.091309,176.774017 
z"/>
<path fill="#060606" opacity="1.000000" stroke="none" 
	d="
M318.952942,408.069885 
	C319.150208,408.076996 319.368195,408.034637 319.584045,408.043488 
	C319.619690,408.044922 319.646210,408.270355 319.676941,408.392303 
	C319.484833,408.427673 319.292725,408.463043 319.060242,408.237976 
	C319.019867,407.977539 318.972900,408.037476 318.952942,408.069885 
z"/>
</svg>