<svg version="1.1" id="Layer_1" xmlns="http://www.w3.org/2000/svg" xmlns:xlink="http://www.w3.org/1999/xlink" x="0px" y="0px"
	 width="100%" viewBox="0 0 512 512" enable-background="new 0 0 512 512" xml:space="preserve">
<path fill="#000000" opacity="1.000000" stroke="none" 
	d="
M350.000000,513.000000 
	C233.361679,513.000000 117.223351,513.000000 1.042510,513.000000 
	C1.042510,342.403320 1.042510,171.806625 1.042510,1.104965 
	C171.554993,1.104965 342.110077,1.104965 512.832581,1.104965 
	C512.832581,171.666534 512.832581,342.333252 512.832581,513.000000 
	C458.806549,513.000000 404.653290,513.000000 350.000000,513.000000 
M135.458771,302.059906 
	C134.578598,302.399292 133.698425,302.738647 131.923065,303.058807 
	C129.757385,303.056519 127.574646,302.879761 125.429688,303.089417 
	C121.387772,303.484497 120.170288,301.548065 120.212120,297.806000 
	C120.469048,274.818481 120.454155,251.826370 120.925400,228.843887 
	C121.044983,223.012299 122.601357,217.210175 123.496742,211.399597 
	C113.973450,209.498184 110.060013,212.446579 109.840714,221.633759 
	C109.789032,223.798859 109.755943,225.965836 109.781532,228.131134 
	C110.370140,277.940948 110.961411,327.750732 111.570168,377.560303 
	C111.684128,386.884125 119.665131,398.618561 128.874710,399.992249 
	C142.850845,402.076935 157.524048,403.913300 167.182373,389.418427 
	C169.906281,385.330505 173.556961,384.276062 178.254196,384.288940 
	C225.904434,384.419922 273.556122,384.225555 321.205170,384.504517 
	C340.796051,384.619202 335.138367,382.149231 348.053741,396.816620 
	C349.966309,398.988647 353.536652,400.618774 356.448608,400.805511 
	C362.900238,401.219299 369.433014,400.733002 375.910553,400.290100 
	C385.058838,399.664551 395.841431,388.482941 395.836700,379.743958 
	C395.795013,302.769623 395.743622,225.795242 395.634338,148.820953 
	C395.615631,135.659912 385.788422,126.031326 372.534698,125.898140 
	C367.536835,125.847916 362.532959,126.022713 357.541382,125.837608 
	C353.360687,125.682571 349.974457,126.914673 347.698700,130.496307 
	C344.403229,135.682709 340.102509,138.515656 333.638885,137.505463 
	C331.748657,137.210022 329.573975,137.605347 327.744385,138.272720 
	C323.107910,139.963989 321.475616,138.224289 320.867340,133.644608 
	C319.746460,125.205276 316.067474,122.174667 307.498810,121.980286 
	C302.669250,121.870720 297.814636,122.195328 293.010712,121.820091 
	C288.577057,121.473778 287.731781,123.458466 287.704865,127.359695 
	C287.675415,131.621521 289.341339,132.906708 293.406586,132.621490 
	C298.550629,132.260574 303.733398,132.232971 308.887421,132.410690 
	C309.964722,132.447830 310.989563,134.006378 312.038574,134.863815 
	C311.050568,135.502686 310.067719,136.689606 309.073792,136.698929 
	C291.747375,136.861725 274.419098,136.942123 257.093140,136.802094 
	C255.825089,136.791855 254.571762,134.959259 253.311600,133.973907 
	C254.570053,133.182449 255.798782,131.770706 257.092194,131.708679 
	C262.244385,131.461685 267.435059,131.374619 272.575897,131.735214 
	C276.723450,132.026154 278.032227,130.304214 277.599060,126.539421 
	C277.412445,124.917351 277.202728,123.297935 276.944092,121.194038 
	C268.840485,121.194038 261.045685,121.171410 253.251099,121.199974 
	C244.272598,121.232880 243.284714,121.970161 242.019562,130.802475 
	C241.424210,134.958679 239.615662,137.021164 235.232315,137.020020 
	C213.573135,137.014420 191.913773,137.189133 170.255005,137.121613 
	C168.503021,137.116150 166.009003,136.265305 165.127121,134.954590 
	C159.580368,126.710693 151.774612,124.705261 142.529297,125.814339 
	C140.228821,126.090302 137.868912,125.861092 135.536484,125.882454 
	C121.606659,126.010033 112.158333,135.217117 111.713470,149.261200 
	C111.523643,155.253967 111.736191,161.259338 111.553696,167.252518 
	C111.429199,171.340988 113.029945,174.263931 116.432083,176.427368 
	C120.085114,178.750351 123.533974,181.411606 127.273537,183.577087 
	C132.251617,186.459747 134.063950,190.503754 134.429825,196.265060 
	C135.261795,209.365662 131.188690,222.754822 136.616013,235.580078 
	C136.466553,257.722351 136.317078,279.864655 135.458771,302.059906 
M210.511627,400.738983 
	C249.832993,400.819214 289.154572,400.856262 328.475372,401.046387 
	C332.421570,401.065430 333.971405,399.486603 333.943848,395.804962 
	C333.918427,392.405121 332.568573,390.750732 328.809204,390.744507 
	C285.655945,390.673187 242.502670,390.513000 199.350204,390.247192 
	C195.724854,390.224854 194.652512,391.762756 194.636856,394.969696 
	C194.620377,398.347412 195.219116,400.951721 199.523621,400.735901 
	C202.847000,400.569244 206.186432,400.722687 210.511627,400.738983 
M123.657417,283.482086 
	C123.675346,286.148346 123.847679,288.824554 123.677124,291.478699 
	C123.376709,296.153839 126.172775,296.940460 129.877502,296.692993 
	C134.479019,296.385559 133.610458,292.525024 133.623657,289.979980 
	C133.677231,279.651642 133.154465,269.320862 133.171448,258.991486 
	C133.177567,255.273224 131.607040,254.638626 128.375717,254.620300 
	C125.111275,254.601776 123.466660,255.287094 123.567230,258.991089 
	C123.779747,266.818024 123.646553,274.654358 123.657417,283.482086 
M132.497986,246.174576 
	C132.825638,242.785599 133.343369,239.397446 133.358383,236.007080 
	C133.362564,235.061783 131.836929,233.272614 131.088516,233.311768 
	C128.419998,233.451401 124.686707,233.354706 123.428856,234.965637 
	C122.031944,236.754669 122.280426,240.470016 122.924438,243.071411 
	C124.100105,247.820389 128.128036,247.184357 132.497986,246.174576 
M175.863678,395.189667 
	C176.398788,398.656891 178.513718,400.797485 181.908340,400.491913 
	C183.726715,400.328217 186.146393,398.964417 186.981049,397.428345 
	C188.610474,394.429626 188.296082,391.148773 184.584351,389.504211 
	C180.571869,387.726318 177.177246,389.750488 175.863678,395.189667 
z"/>
<path fill="#070707" opacity="1.000000" stroke="none" 
	d="
M132.818253,303.078003 
	C133.698425,302.738647 134.578598,302.399292 135.957748,302.482544 
	C136.395645,317.069061 136.378891,331.233429 136.241776,345.396606 
	C136.208206,348.865417 136.217300,351.483215 141.070465,351.445374 
	C145.579391,351.410156 146.774506,349.662811 146.771683,345.509491 
	C146.748672,311.681549 146.876434,277.853516 146.884506,244.025482 
	C146.884827,242.668671 146.228806,241.280533 145.733398,239.961517 
	C144.806091,237.492584 142.936356,235.070389 142.916702,232.617065 
	C142.776642,215.122101 142.917572,197.622818 143.192825,180.128433 
	C143.245499,176.778992 142.293701,175.120056 139.086487,173.843918 
	C134.474960,172.009018 130.072815,169.560272 125.800156,167.007263 
	C124.235542,166.072372 122.292313,164.120499 122.249031,162.583893 
	C122.086128,156.799377 121.895233,150.819565 123.210876,145.267426 
	C123.930725,142.229584 127.281570,138.199081 130.086624,137.596024 
	C136.640182,136.187042 143.688065,135.749817 150.316422,136.609711 
	C153.358185,137.004303 155.753693,141.539993 158.689575,143.888626 
	C160.622330,145.434784 163.000885,147.519653 165.172318,147.510864 
	C217.161453,147.300247 269.149567,146.836731 321.137970,146.432251 
	C322.790344,146.419388 324.469574,146.381104 326.091736,146.637070 
	C330.748444,147.371841 335.389374,148.213806 340.023071,149.085159 
	C344.908600,150.003891 348.381836,148.196594 350.733093,143.882370 
	C354.068115,137.763123 359.234436,135.330551 366.121643,136.302689 
	C367.757477,136.533569 369.450195,136.346832 371.116119,136.381409 
	C380.833099,136.583038 385.163849,140.698227 385.171600,150.522583 
	C385.204102,191.682281 385.085236,232.842117 384.786377,273.961121 
	C384.550903,273.920349 384.073181,273.932281 383.941406,273.583130 
	C380.515656,272.485199 377.176422,271.888458 373.945923,270.926605 
	C372.206909,270.408875 370.654175,269.265350 369.017395,268.404175 
	C369.991119,267.015839 370.842834,265.516449 371.975250,264.272552 
	C372.967346,263.182800 374.413055,262.508698 375.418213,261.427643 
	C379.232117,257.325562 379.845520,249.348160 377.147491,245.629837 
	C375.836304,243.822769 374.664551,241.428055 374.613678,239.271408 
	C374.268005,224.622070 374.119598,209.964752 374.185669,195.311249 
	C374.203278,191.408157 372.312897,190.873184 369.254730,191.130569 
	C366.414856,191.369568 363.171326,190.402618 363.190399,195.367462 
	C363.272919,216.848740 363.037567,238.331070 363.065826,259.812836 
	C363.069427,262.551880 364.338928,265.292389 364.321106,268.027649 
	C364.294556,272.108002 363.325500,276.183319 363.313202,280.262451 
	C363.247406,302.078186 363.302582,323.894928 363.495575,345.709717 
	C363.511688,347.533478 364.392883,350.423096 365.668304,350.973785 
	C370.797821,353.188629 373.946564,350.802979 373.906769,345.294769 
	C373.772034,326.643402 373.613586,307.992218 373.468384,289.340912 
	C373.453461,287.425507 373.466400,285.509857 373.466400,284.636047 
	C377.658447,283.224762 380.864288,282.145477 384.321320,281.077209 
	C384.737061,281.056122 384.901581,281.024109 385.106018,281.459839 
	C385.311554,312.899689 385.502502,343.871735 385.626465,374.843994 
	C385.661163,383.518097 381.235321,388.983887 372.629730,390.358215 
	C363.428040,391.827698 354.554565,391.707611 348.998260,382.196320 
	C348.255737,380.925293 346.998169,379.966797 346.091492,378.777832 
	C343.457703,375.324310 340.084656,374.110992 335.695251,374.117676 
	C282.242523,374.198792 228.789169,374.213715 175.337158,373.978821 
	C169.093430,373.951385 164.367767,375.403564 161.021759,380.818939 
	C155.382401,389.945984 146.881638,392.044739 136.823883,390.737976 
	C127.013672,389.463379 121.942940,384.029663 122.117088,374.183044 
	C122.452759,355.204163 122.841171,336.226196 123.230919,317.248322 
	C123.257507,315.953674 123.477242,314.662964 123.613449,313.307739 
	C126.934853,312.866119 131.045151,313.481476 132.718414,311.746490 
	C134.178253,310.232788 132.891479,306.070221 132.818253,303.078003 
M228.514008,302.360382 
	C248.158234,302.316223 267.802856,302.332520 287.446503,302.199280 
	C295.735931,302.143097 299.182831,298.507782 299.180206,290.182709 
	C299.173370,268.540710 299.140656,246.898651 299.083954,225.256714 
	C299.062347,217.003235 295.875366,213.744537 287.637451,213.730270 
	C265.496185,213.691925 243.354630,213.701416 221.213425,213.768311 
	C212.520218,213.794571 209.236008,217.174728 209.218643,225.971283 
	C209.180527,245.282547 209.211853,264.593933 209.198898,283.905243 
	C209.187317,301.183929 210.326599,302.341095 228.514008,302.360382 
M188.739120,197.700150 
	C183.918640,189.238220 178.831390,180.912857 174.398483,172.252533 
	C172.401917,168.351944 169.877441,166.513550 165.808151,167.269135 
	C161.499161,168.069214 159.148621,171.122955 159.142776,175.420044 
	C159.137039,179.629425 161.241989,183.598709 165.544876,183.585281 
	C170.170502,183.570877 171.389191,186.112488 172.960388,189.265335 
	C175.851501,195.066772 178.569366,200.996735 181.993484,206.476959 
	C184.691772,210.795517 187.950180,214.937820 191.659348,218.411423 
	C197.624832,223.998001 201.155304,222.679703 202.687439,216.545471 
	C197.681305,209.857239 193.378281,204.108368 188.739120,197.700150 
M337.001587,186.544571 
	C339.448456,182.442764 340.873108,177.459976 347.489288,177.840302 
	C348.875244,177.919968 351.453339,174.315033 351.682220,172.212097 
	C351.874268,170.447952 349.794434,167.200745 348.106110,166.705750 
	C343.539825,165.366989 338.711456,165.610611 335.644806,170.269043 
	C332.269775,175.395950 328.695770,180.449509 325.908173,185.893326 
	C320.334839,196.777161 314.770782,207.529861 303.056305,213.379501 
	C304.597534,216.087158 305.888794,218.355637 307.377563,220.971054 
	C317.063568,217.305130 323.796844,210.707428 328.761078,202.188400 
	C331.603088,197.311340 334.035431,192.195557 337.001587,186.544571 
M293.013794,166.680969 
	C293.066895,165.354889 292.994781,164.009735 293.193451,162.705826 
	C294.494141,154.168549 293.488586,153.069443 284.886749,153.790710 
	C280.540863,154.155121 279.405396,156.448318 281.077759,160.635422 
	C284.286774,168.669937 283.330933,174.659393 277.880981,178.431808 
	C275.449982,180.114502 273.684753,182.757065 271.257782,184.447861 
	C263.846924,189.610809 266.172607,197.073029 266.419403,204.013443 
	C266.446503,204.775879 267.826355,206.029144 268.680511,206.122314 
	C271.254852,206.403152 273.879425,206.223648 277.304108,206.223648 
	C274.895721,196.826385 278.131989,189.872116 285.760345,184.773499 
	C291.897766,180.671371 294.204987,174.862625 293.013794,166.680969 
M221.766556,184.716415 
	C228.804260,190.026581 233.337967,196.501831 230.665970,206.178452 
	C233.754364,206.178452 235.971863,206.517136 238.003494,206.049042 
	C239.187027,205.776367 240.870499,204.281189 240.963470,203.216782 
	C241.577744,196.184525 241.985428,189.133209 235.012543,184.354340 
	C233.127136,183.062149 231.721603,181.072678 230.085098,179.413803 
	C225.327972,174.591660 224.189667,168.204269 227.053635,161.881592 
	C228.561661,158.552338 228.570282,155.608200 224.785583,153.986130 
	C220.494339,152.146927 214.342316,153.843750 213.371307,157.065231 
	C213.023117,158.220398 213.363159,159.632095 213.572327,160.896408 
	C214.075226,163.936081 215.382126,167.022247 215.108810,169.973343 
	C214.546051,176.049255 216.417130,180.676224 221.766556,184.716415 
M178.199554,314.690216 
	C179.269730,313.207336 180.448944,311.790344 181.391510,310.230316 
	C185.873856,302.811829 191.084274,296.601898 201.007034,297.713379 
	C201.248764,297.740479 201.535492,297.365601 201.811249,297.171173 
	C201.811249,294.131592 201.811249,291.097626 201.811249,288.097992 
	C186.983414,287.266083 185.026520,288.189789 176.801041,299.686798 
	C176.317383,300.362854 175.829239,301.035675 175.341888,301.709076 
	C171.037949,307.655792 167.802780,314.773682 158.145462,313.368622 
	C154.783051,312.879425 154.563095,316.647339 154.642441,319.370911 
	C154.718719,321.988220 155.659454,323.612732 158.819489,323.698853 
	C166.560104,323.909729 173.423157,322.501801 178.199554,314.690216 
M205.786530,308.236572 
	C204.349274,308.572693 202.456192,308.456146 201.574493,309.343964 
	C199.987000,310.942505 199.045029,313.169250 197.763885,315.087128 
	C192.885117,322.390625 187.732376,329.324615 178.748550,332.178497 
	C177.461838,332.587250 176.190842,334.619019 175.865433,336.107880 
	C175.388702,338.289093 175.301376,340.794128 175.911713,342.912292 
	C176.634155,345.419586 177.728012,348.776306 179.661804,349.725281 
	C181.862030,350.805084 185.804733,350.549866 187.801849,349.163391 
	C189.565002,347.939331 190.809464,344.091400 190.276047,341.887787 
	C189.527359,338.794708 190.445892,337.276611 192.430695,335.516022 
	C196.910492,331.542358 201.422043,327.593567 205.713074,323.421173 
	C210.112045,319.143799 210.282700,312.105682 205.786530,308.236572 
M327.487061,290.879547 
	C320.915710,287.944977 314.155945,286.214874 306.751129,287.259216 
	C306.751129,290.404480 306.751129,293.145752 306.751129,296.253387 
	C318.463562,296.668152 328.256622,300.048553 332.741547,311.955444 
	C332.963593,312.544952 333.511169,313.037170 333.976593,313.505768 
	C338.417145,317.976562 345.025421,318.266083 349.195587,314.189484 
	C352.500183,310.959015 353.594788,306.358673 351.338959,303.936157 
	C347.692139,300.019958 344.867157,302.981750 342.047760,305.349457 
	C341.936615,305.442810 341.729034,305.421326 342.808563,305.208771 
	C337.575378,300.172668 332.884491,295.658478 327.487061,290.879547 
M317.553955,248.429672 
	C313.970642,248.429672 310.387299,248.429672 306.821289,248.429672 
	C306.821289,252.167191 306.821289,255.066956 306.821289,258.469055 
	C313.421967,258.469055 319.707153,258.339020 325.984375,258.506470 
	C331.986084,258.666595 338.056610,257.465393 343.797760,261.086395 
	C346.875793,263.027771 350.310913,261.314606 352.342041,258.133667 
	C354.552399,254.672089 353.729065,249.502594 350.585480,246.734116 
	C347.654663,244.153000 344.623077,243.754868 341.038086,245.888977 
	C338.796112,247.223618 336.059143,248.192963 333.474213,248.385513 
	C328.522217,248.754349 323.520294,248.452805 317.553955,248.429672 
M237.660934,342.035980 
	C233.425964,342.070953 230.498840,343.912048 230.189865,348.334747 
	C229.901108,352.467834 232.026993,355.589325 236.051605,356.447845 
	C238.275574,356.922272 241.427414,356.740753 243.054291,355.454803 
	C245.492905,353.527283 248.452393,350.438965 248.580978,347.720917 
	C249.165817,335.357178 248.837341,322.950256 248.837341,310.496735 
	C245.191391,310.496735 242.167908,310.496735 238.455597,310.496735 
	C238.455597,321.171448 238.455597,331.433929 237.660934,342.035980 
M271.252258,326.487213 
	C271.252258,321.063263 271.252258,315.639343 271.252258,310.277893 
	C267.370758,310.277893 264.463654,310.277893 260.295624,310.277893 
	C264.257019,324.146088 255.997604,338.865723 266.401093,351.687775 
	C269.022552,354.918640 271.279602,357.138824 275.397003,356.016815 
	C279.269928,354.961365 281.107300,352.068085 280.928680,348.122101 
	C280.736511,343.876709 278.407898,341.400238 274.128632,340.872742 
	C273.339355,340.775452 272.548187,340.693146 271.260071,340.547729 
	C271.260071,336.079224 271.260071,331.779633 271.252258,326.487213 
M316.329132,319.120941 
	C314.809662,316.684418 313.497223,314.080902 311.708008,311.861877 
	C310.156281,309.937439 308.233643,307.417755 306.160217,307.077148 
	C304.340485,306.778290 300.474854,308.987152 300.346252,310.354797 
	C300.053619,313.466888 300.536163,317.576447 302.440277,319.779907 
	C306.526215,324.508118 311.648163,328.361298 316.475128,332.419067 
	C318.457764,334.085754 319.421539,335.457306 318.316650,338.286865 
	C317.682770,339.910095 318.019928,342.923492 319.161682,344.031403 
	C322.084106,346.867157 329.889313,344.720642 332.457825,340.854736 
	C335.039429,336.969177 333.863495,332.557220 329.823334,329.630798 
	C325.401489,326.427856 321.180023,322.948303 316.329132,319.120941 
M307.201904,339.516144 
	C304.331329,337.271118 301.595154,334.822388 298.562927,332.822418 
	C291.749786,328.328522 288.182861,322.497437 289.782104,314.087677 
	C290.009552,312.891693 289.538086,311.562775 289.381165,310.218933 
	C286.083679,310.218933 283.174255,310.218933 280.225861,310.218933 
	C278.723511,321.234070 277.778961,331.739227 289.529877,338.024048 
	C290.672607,338.635254 291.813965,339.569153 292.499023,340.644379 
	C293.656616,342.461304 294.993134,344.432495 295.288483,346.478271 
	C296.056244,351.796509 299.758301,353.881958 304.514557,351.254944 
	C308.483826,349.062622 309.535370,345.339386 307.201904,339.516144 
M288.144104,202.844757 
	C293.801331,206.967484 294.344208,206.898239 298.558502,201.972809 
	C304.394501,195.152023 310.011078,188.113510 316.250885,181.681686 
	C319.077820,178.767746 322.200623,176.276596 322.600769,172.071381 
	C322.781372,170.173447 322.318970,166.811142 321.341675,166.477768 
	C318.742676,165.591171 315.598053,165.508331 312.894348,166.110901 
	C311.792419,166.356491 311.160187,169.156845 310.513550,170.870102 
	C309.889160,172.524277 310.037445,174.770401 308.953644,175.900208 
	C303.548370,181.535049 298.093903,187.175705 292.156525,192.226288 
	C288.861633,195.029053 287.348969,197.893875 288.144104,202.844757 
M218.512360,204.969009 
	C221.709473,201.773331 220.525391,198.803741 217.940491,196.028168 
	C212.494583,190.180511 206.994247,184.383362 201.495346,178.585327 
	C199.663025,176.653351 197.768814,175.088715 199.452820,171.746536 
	C200.029633,170.601791 198.430038,166.950363 197.204559,166.597366 
	C194.548416,165.832275 191.327408,165.935303 188.681198,166.771408 
	C187.636093,167.101624 187.096268,170.323837 187.067917,172.240173 
	C187.035141,174.456299 187.819778,176.684509 188.080551,178.033478 
	C190.464828,180.154205 192.609543,181.650070 194.233551,183.583359 
	C199.158325,189.445892 204.110611,195.312057 208.592743,201.509109 
	C211.067780,204.931091 213.649445,206.439941 218.512360,204.969009 
M162.915115,258.881592 
	C175.958511,258.881592 189.001907,258.881592 201.962097,258.881592 
	C201.962097,255.620377 201.962097,252.694275 201.962097,249.217255 
	C193.393372,249.217255 185.108978,249.321426 176.831207,249.133835 
	C175.067780,249.093887 172.969284,248.418381 171.644333,247.301300 
	C167.440063,243.756668 162.256729,243.530441 159.271255,247.166306 
	C156.421661,250.636688 157.517792,254.909653 162.915115,258.881592 
M220.096527,322.238434 
	C220.670090,325.913910 219.229462,328.611725 216.283173,330.795990 
	C212.549362,333.564056 208.960495,336.527802 205.313553,339.412781 
	C202.226898,341.854553 201.657410,346.407501 204.341980,349.105865 
	C206.666931,351.442749 209.607788,352.503876 212.268311,349.833984 
	C217.475800,344.608185 222.465164,339.161835 227.449829,333.719757 
	C228.518829,332.552643 229.862122,331.043762 229.919556,329.644745 
	C230.183258,323.220795 230.035645,316.779938 230.035645,310.212769 
	C226.491028,310.212769 223.577209,310.212769 220.100082,310.212769 
	C220.100082,314.078461 220.100082,317.696167 220.096527,322.238434 
M258.900543,188.581039 
	C259.361938,185.439713 258.835205,181.511292 260.545197,179.364487 
	C262.501465,176.908524 264.273315,175.177307 262.636139,172.162384 
	C260.962036,169.079468 255.378311,168.056305 251.337708,169.981842 
	C248.424194,171.370239 246.438583,173.240509 247.554703,177.008514 
	C248.197556,179.178757 248.453369,181.527466 248.488907,183.802002 
	C248.602249,191.054489 248.530914,198.309860 248.530914,205.781586 
	C252.316025,205.781586 255.340012,205.781586 258.231659,205.781586 
	C258.481750,205.106201 258.687988,204.803619 258.693024,204.497711 
	C258.775146,199.518967 258.831818,194.539825 258.900543,188.581039 
M165.400513,216.005676 
	C158.900665,215.052628 154.064835,217.866531 153.243896,223.079468 
	C152.556595,227.443848 155.817505,231.662933 160.689941,232.713455 
	C164.989670,233.640472 169.647324,231.252258 171.310837,227.267593 
	C172.964844,223.305649 171.276581,219.768234 165.400513,216.005676 
M365.949341,380.907532 
	C373.661224,380.924042 378.181946,375.451508 375.452026,369.276031 
	C373.808380,365.557861 370.821136,363.596436 366.713074,363.988831 
	C362.565674,364.385040 359.979431,366.946198 359.328308,370.951965 
	C358.562866,375.661407 360.718170,378.966339 365.949341,380.907532 
M365.128571,146.352737 
	C361.323486,147.665085 358.400391,150.273590 358.962280,154.290222 
	C359.342499,157.008392 361.258759,160.117767 363.445099,161.830170 
	C366.461151,164.192444 370.645020,163.484711 372.844513,160.529129 
	C374.562927,158.220001 375.667389,154.439301 375.123260,151.693237 
	C374.255280,147.312744 370.407532,145.636292 365.128571,146.352737 
M148.311218,151.382294 
	C146.656464,147.059723 143.386597,145.177078 138.939453,145.751221 
	C135.139709,146.241760 132.073868,148.582489 132.045334,152.416855 
	C132.024612,155.201843 133.167145,159.130569 135.181503,160.492081 
	C137.415146,162.001785 141.533203,162.071060 144.282196,161.142929 
	C148.045441,159.872330 149.330521,156.174866 148.311218,151.382294 
M141.905930,380.620239 
	C142.944214,380.108276 144.099564,379.748718 144.999878,379.057159 
	C148.334839,376.495453 149.165741,373.010773 147.642853,369.266144 
	C146.021545,365.279602 142.740906,363.376343 138.428757,364.099701 
	C134.358429,364.782532 132.015152,367.500977 131.454529,371.539246 
	C130.715836,376.860138 134.651276,380.536163 141.905930,380.620239 
M184.720291,239.070724 
	C190.420502,239.363739 196.120712,239.656769 201.994598,239.958710 
	C201.994598,235.936401 201.994598,232.843521 201.994598,229.096893 
	C197.326675,229.096893 192.880234,228.909592 188.461594,229.178787 
	C186.365906,229.306458 182.660904,230.120468 182.568939,230.945145 
	C182.294983,233.401703 183.449448,236.017548 184.720291,239.070724 
M306.622284,229.239227 
	C306.622284,232.168991 306.622284,235.098770 306.622284,238.812057 
	C311.543060,238.812057 316.317963,238.552216 321.050323,238.889359 
	C325.292480,239.191589 325.658813,236.575775 325.714905,233.623077 
	C325.770020,230.720566 325.080811,228.405029 321.271393,228.592102 
	C316.636749,228.819687 311.985687,228.712570 306.622284,229.239227 
M310.801697,268.059937 
	C305.805786,268.408783 305.346497,269.576172 307.011200,277.920227 
	C312.886353,277.920227 318.787781,277.920227 325.069885,277.920227 
	C325.069885,274.556335 325.069885,271.505676 325.069885,268.052795 
	C320.322723,268.052795 316.028687,268.052795 310.801697,268.059937 
M187.062424,269.087189 
	C185.987976,272.650848 183.987656,277.123047 188.933792,278.608856 
	C192.951523,279.815796 197.620743,278.853973 201.919357,278.853973 
	C201.919357,275.243195 201.919357,272.177216 201.919357,268.678009 
	C197.048599,268.678009 192.470566,268.678009 187.062424,269.087189 
z"/>
<path fill="#F3F3F3" opacity="1.000000" stroke="none" 
	d="
M132.370667,303.068420 
	C132.891479,306.070221 134.178253,310.232788 132.718414,311.746490 
	C131.045151,313.481476 126.934853,312.866119 123.613449,313.307739 
	C123.477242,314.662964 123.257507,315.953674 123.230919,317.248322 
	C122.841171,336.226196 122.452759,355.204163 122.117088,374.183044 
	C121.942940,384.029663 127.013672,389.463379 136.823883,390.737976 
	C146.881638,392.044739 155.382401,389.945984 161.021759,380.818939 
	C164.367767,375.403564 169.093430,373.951385 175.337158,373.978821 
	C228.789169,374.213715 282.242523,374.198792 335.695251,374.117676 
	C340.084656,374.110992 343.457703,375.324310 346.091492,378.777832 
	C346.998169,379.966797 348.255737,380.925293 348.998260,382.196320 
	C354.554565,391.707611 363.428040,391.827698 372.629730,390.358215 
	C381.235321,388.983887 385.661163,383.518097 385.626465,374.843994 
	C385.502502,343.871735 385.311554,312.899689 385.355377,281.189484 
	C385.383789,278.301544 385.202789,276.151733 385.021790,274.001892 
	C385.085236,232.842117 385.204102,191.682281 385.171600,150.522583 
	C385.163849,140.698227 380.833099,136.583038 371.116119,136.381409 
	C369.450195,136.346832 367.757477,136.533569 366.121643,136.302689 
	C359.234436,135.330551 354.068115,137.763123 350.733093,143.882370 
	C348.381836,148.196594 344.908600,150.003891 340.023071,149.085159 
	C335.389374,148.213806 330.748444,147.371841 326.091736,146.637070 
	C324.469574,146.381104 322.790344,146.419388 321.137970,146.432251 
	C269.149567,146.836731 217.161453,147.300247 165.172318,147.510864 
	C163.000885,147.519653 160.622330,145.434784 158.689575,143.888626 
	C155.753693,141.539993 153.358185,137.004303 150.316422,136.609711 
	C143.688065,135.749817 136.640182,136.187042 130.086624,137.596024 
	C127.281570,138.199081 123.930725,142.229584 123.210876,145.267426 
	C121.895233,150.819565 122.086128,156.799377 122.249031,162.583893 
	C122.292313,164.120499 124.235542,166.072372 125.800156,167.007263 
	C130.072815,169.560272 134.474960,172.009018 139.086487,173.843918 
	C142.293701,175.120056 143.245499,176.778992 143.192825,180.128433 
	C142.917572,197.622818 142.776642,215.122101 142.916702,232.617065 
	C142.936356,235.070389 144.806091,237.492584 145.733398,239.961517 
	C146.228806,241.280533 146.884827,242.668671 146.884506,244.025482 
	C146.876434,277.853516 146.748672,311.681549 146.771683,345.509491 
	C146.774506,349.662811 145.579391,351.410156 141.070465,351.445374 
	C136.217300,351.483215 136.208206,348.865417 136.241776,345.396606 
	C136.378891,331.233429 136.395645,317.069061 136.312164,302.456055 
	C136.317078,279.864655 136.466553,257.722351 136.616013,235.580078 
	C131.188690,222.754822 135.261795,209.365662 134.429825,196.265060 
	C134.063950,190.503754 132.251617,186.459747 127.273537,183.577087 
	C123.533974,181.411606 120.085114,178.750351 116.432083,176.427368 
	C113.029945,174.263931 111.429199,171.340988 111.553696,167.252518 
	C111.736191,161.259338 111.523643,155.253967 111.713470,149.261200 
	C112.158333,135.217117 121.606659,126.010033 135.536484,125.882454 
	C137.868912,125.861092 140.228821,126.090302 142.529297,125.814339 
	C151.774612,124.705261 159.580368,126.710693 165.127121,134.954590 
	C166.009003,136.265305 168.503021,137.116150 170.255005,137.121613 
	C191.913773,137.189133 213.573135,137.014420 235.232315,137.020020 
	C239.615662,137.021164 241.424210,134.958679 242.019562,130.802475 
	C243.284714,121.970161 244.272598,121.232880 253.251099,121.199974 
	C261.045685,121.171410 268.840485,121.194038 276.944092,121.194038 
	C277.202728,123.297935 277.412445,124.917351 277.599060,126.539421 
	C278.032227,130.304214 276.723450,132.026154 272.575897,131.735214 
	C267.435059,131.374619 262.244385,131.461685 257.092194,131.708679 
	C255.798782,131.770706 254.570053,133.182449 253.311600,133.973907 
	C254.571762,134.959259 255.825089,136.791855 257.093140,136.802094 
	C274.419098,136.942123 291.747375,136.861725 309.073792,136.698929 
	C310.067719,136.689606 311.050568,135.502686 312.038574,134.863815 
	C310.989563,134.006378 309.964722,132.447830 308.887421,132.410690 
	C303.733398,132.232971 298.550629,132.260574 293.406586,132.621490 
	C289.341339,132.906708 287.675415,131.621521 287.704865,127.359695 
	C287.731781,123.458466 288.577057,121.473778 293.010712,121.820091 
	C297.814636,122.195328 302.669250,121.870720 307.498810,121.980286 
	C316.067474,122.174667 319.746460,125.205276 320.867340,133.644608 
	C321.475616,138.224289 323.107910,139.963989 327.744385,138.272720 
	C329.573975,137.605347 331.748657,137.210022 333.638885,137.505463 
	C340.102509,138.515656 344.403229,135.682709 347.698700,130.496307 
	C349.974457,126.914673 353.360687,125.682571 357.541382,125.837608 
	C362.532959,126.022713 367.536835,125.847916 372.534698,125.898140 
	C385.788422,126.031326 395.615631,135.659912 395.634338,148.820953 
	C395.743622,225.795242 395.795013,302.769623 395.836700,379.743958 
	C395.841431,388.482941 385.058838,399.664551 375.910553,400.290100 
	C369.433014,400.733002 362.900238,401.219299 356.448608,400.805511 
	C353.536652,400.618774 349.966309,398.988647 348.053741,396.816620 
	C335.138367,382.149231 340.796051,384.619202 321.205170,384.504517 
	C273.556122,384.225555 225.904434,384.419922 178.254196,384.288940 
	C173.556961,384.276062 169.906281,385.330505 167.182373,389.418427 
	C157.524048,403.913300 142.850845,402.076935 128.874710,399.992249 
	C119.665131,398.618561 111.684128,386.884125 111.570168,377.560303 
	C110.961411,327.750732 110.370140,277.940948 109.781532,228.131134 
	C109.755943,225.965836 109.789032,223.798859 109.840714,221.633759 
	C110.060013,212.446579 113.973450,209.498184 123.496742,211.399597 
	C122.601357,217.210175 121.044983,223.012299 120.925400,228.843887 
	C120.454155,251.826370 120.469048,274.818481 120.212120,297.806000 
	C120.170288,301.548065 121.387772,303.484497 125.429688,303.089417 
	C127.574646,302.879761 129.757385,303.056519 132.370667,303.068420 
z"/>
<path fill="#EFF0F0" opacity="1.000000" stroke="none" 
	d="
M210.015182,400.736420 
	C206.186432,400.722687 202.847000,400.569244 199.523621,400.735901 
	C195.219116,400.951721 194.620377,398.347412 194.636856,394.969696 
	C194.652512,391.762756 195.724854,390.224854 199.350204,390.247192 
	C242.502670,390.513000 285.655945,390.673187 328.809204,390.744507 
	C332.568573,390.750732 333.918427,392.405121 333.943848,395.804962 
	C333.971405,399.486603 332.421570,401.065430 328.475372,401.046387 
	C289.154572,400.856262 249.832993,400.819214 210.015182,400.736420 
z"/>
<path fill="#F4F4F4" opacity="1.000000" stroke="none" 
	d="
M123.656296,282.984436 
	C123.646553,274.654358 123.779747,266.818024 123.567230,258.991089 
	C123.466660,255.287094 125.111275,254.601776 128.375717,254.620300 
	C131.607040,254.638626 133.177567,255.273224 133.171448,258.991486 
	C133.154465,269.320862 133.677231,279.651642 133.623657,289.979980 
	C133.610458,292.525024 134.479019,296.385559 129.877502,296.692993 
	C126.172775,296.940460 123.376709,296.153839 123.677124,291.478699 
	C123.847679,288.824554 123.675346,286.148346 123.656296,282.984436 
z"/>
<path fill="#E9E9E9" opacity="1.000000" stroke="none" 
	d="
M132.153931,246.409332 
	C128.128036,247.184357 124.100105,247.820389 122.924438,243.071411 
	C122.280426,240.470016 122.031944,236.754669 123.428856,234.965637 
	C124.686707,233.354706 128.419998,233.451401 131.088516,233.311768 
	C131.836929,233.272614 133.362564,235.061783 133.358383,236.007080 
	C133.343369,239.397446 132.825638,242.785599 132.153931,246.409332 
z"/>
<path fill="#E9E9E9" opacity="1.000000" stroke="none" 
	d="
M175.843063,394.840027 
	C177.177246,389.750488 180.571869,387.726318 184.584351,389.504211 
	C188.296082,391.148773 188.610474,394.429626 186.981049,397.428345 
	C186.146393,398.964417 183.726715,400.328217 181.908340,400.491913 
	C178.513718,400.797485 176.398788,398.656891 175.843063,394.840027 
z"/>
<path fill="#F6F7F6" opacity="1.000000" stroke="none" 
	d="
M228.017853,302.360443 
	C210.326599,302.341095 209.187317,301.183929 209.198898,283.905243 
	C209.211853,264.593933 209.180527,245.282547 209.218643,225.971283 
	C209.236008,217.174728 212.520218,213.794571 221.213425,213.768311 
	C243.354630,213.701416 265.496185,213.691925 287.637451,213.730270 
	C295.875366,213.744537 299.062347,217.003235 299.083954,225.256714 
	C299.140656,246.898651 299.173370,268.540710 299.180206,290.182709 
	C299.182831,298.507782 295.735931,302.143097 287.446503,302.199280 
	C267.802856,302.332520 248.158234,302.316223 228.017853,302.360443 
M285.339264,284.192993 
	C285.375732,267.529999 285.334900,250.866226 285.498413,234.204468 
	C285.544128,229.547989 283.833374,227.627045 279.024261,227.694183 
	C262.363647,227.926788 245.698822,227.950958 229.036270,227.884827 
	C224.700790,227.867615 223.120331,229.700638 223.140671,233.899292 
	C223.219757,250.228668 223.185913,266.559174 223.072464,282.888397 
	C223.046143,286.677734 224.595001,288.436523 228.378174,288.432068 
	C245.707703,288.411804 263.038422,288.522827 280.364929,288.296906 
	C281.998291,288.275635 283.605316,286.231842 285.339264,284.192993 
z"/>
<path fill="#F0F0F0" opacity="1.000000" stroke="none" 
	d="
M384.070129,281.066223 
	C380.864288,282.145477 377.658447,283.224762 373.466400,284.636047 
	C373.466400,285.509857 373.453461,287.425507 373.468384,289.340912 
	C373.613586,307.992218 373.772034,326.643402 373.906769,345.294769 
	C373.946564,350.802979 370.797821,353.188629 365.668304,350.973785 
	C364.392883,350.423096 363.511688,347.533478 363.495575,345.709717 
	C363.302582,323.894928 363.247406,302.078186 363.313202,280.262451 
	C363.325500,276.183319 364.294556,272.108002 364.321106,268.027649 
	C364.338928,265.292389 363.069427,262.551880 363.065826,259.812836 
	C363.037567,238.331070 363.272919,216.848740 363.190399,195.367462 
	C363.171326,190.402618 366.414856,191.369568 369.254730,191.130569 
	C372.312897,190.873184 374.203278,191.408157 374.185669,195.311249 
	C374.119598,209.964752 374.268005,224.622070 374.613678,239.271408 
	C374.664551,241.428055 375.836304,243.822769 377.147491,245.629837 
	C379.845520,249.348160 379.232117,257.325562 375.418213,261.427643 
	C374.413055,262.508698 372.967346,263.182800 371.975250,264.272552 
	C370.842834,265.516449 369.991119,267.015839 369.017395,268.404175 
	C370.654175,269.265350 372.206909,270.408875 373.945923,270.926605 
	C377.176422,271.888458 380.515656,272.485199 383.840088,274.020325 
	C383.937134,276.893188 384.003632,278.979706 384.070129,281.066223 
z"/>
<path fill="#F2F3F2" opacity="1.000000" stroke="none" 
	d="
M188.907196,198.029816 
	C193.378281,204.108368 197.681305,209.857239 202.687439,216.545471 
	C201.155304,222.679703 197.624832,223.998001 191.659348,218.411423 
	C187.950180,214.937820 184.691772,210.795517 181.993484,206.476959 
	C178.569366,200.996735 175.851501,195.066772 172.960388,189.265335 
	C171.389191,186.112488 170.170502,183.570877 165.544876,183.585281 
	C161.241989,183.598709 159.137039,179.629425 159.142776,175.420044 
	C159.148621,171.122955 161.499161,168.069214 165.808151,167.269135 
	C169.877441,166.513550 172.401917,168.351944 174.398483,172.252533 
	C178.831390,180.912857 183.918640,189.238220 188.907196,198.029816 
z"/>
<path fill="#F3F3F3" opacity="1.000000" stroke="none" 
	d="
M336.826904,186.865906 
	C334.035431,192.195557 331.603088,197.311340 328.761078,202.188400 
	C323.796844,210.707428 317.063568,217.305130 307.377563,220.971054 
	C305.888794,218.355637 304.597534,216.087158 303.056305,213.379501 
	C314.770782,207.529861 320.334839,196.777161 325.908173,185.893326 
	C328.695770,180.449509 332.269775,175.395950 335.644806,170.269043 
	C338.711456,165.610611 343.539825,165.366989 348.106110,166.705750 
	C349.794434,167.200745 351.874268,170.447952 351.682220,172.212097 
	C351.453339,174.315033 348.875244,177.919968 347.489288,177.840302 
	C340.873108,177.459976 339.448456,182.442764 336.826904,186.865906 
z"/>
<path fill="#F4F4F4" opacity="1.000000" stroke="none" 
	d="
M293.012207,167.149384 
	C294.204987,174.862625 291.897766,180.671371 285.760345,184.773499 
	C278.131989,189.872116 274.895721,196.826385 277.304108,206.223648 
	C273.879425,206.223648 271.254852,206.403152 268.680511,206.122314 
	C267.826355,206.029144 266.446503,204.775879 266.419403,204.013443 
	C266.172607,197.073029 263.846924,189.610809 271.257782,184.447861 
	C273.684753,182.757065 275.449982,180.114502 277.880981,178.431808 
	C283.330933,174.659393 284.286774,168.669937 281.077759,160.635422 
	C279.405396,156.448318 280.540863,154.155121 284.886749,153.790710 
	C293.488586,153.069443 294.494141,154.168549 293.193451,162.705826 
	C292.994781,164.009735 293.066895,165.354889 293.012207,167.149384 
z"/>
<path fill="#F3F3F3" opacity="1.000000" stroke="none" 
	d="
M221.512909,184.470123 
	C216.417130,180.676224 214.546051,176.049255 215.108810,169.973343 
	C215.382126,167.022247 214.075226,163.936081 213.572327,160.896408 
	C213.363159,159.632095 213.023117,158.220398 213.371307,157.065231 
	C214.342316,153.843750 220.494339,152.146927 224.785583,153.986130 
	C228.570282,155.608200 228.561661,158.552338 227.053635,161.881592 
	C224.189667,168.204269 225.327972,174.591660 230.085098,179.413803 
	C231.721603,181.072678 233.127136,183.062149 235.012543,184.354340 
	C241.985428,189.133209 241.577744,196.184525 240.963470,203.216782 
	C240.870499,204.281189 239.187027,205.776367 238.003494,206.049042 
	C235.971863,206.517136 233.754364,206.178452 230.665970,206.178452 
	C233.337967,196.501831 228.804260,190.026581 221.512909,184.470123 
z"/>
<path fill="#F4F4F4" opacity="1.000000" stroke="none" 
	d="
M177.992386,314.980469 
	C173.423157,322.501801 166.560104,323.909729 158.819489,323.698853 
	C155.659454,323.612732 154.718719,321.988220 154.642441,319.370911 
	C154.563095,316.647339 154.783051,312.879425 158.145462,313.368622 
	C167.802780,314.773682 171.037949,307.655792 175.341888,301.709076 
	C175.829239,301.035675 176.317383,300.362854 176.801041,299.686798 
	C185.026520,288.189789 186.983414,287.266083 201.811249,288.097992 
	C201.811249,291.097626 201.811249,294.131592 201.811249,297.171173 
	C201.535492,297.365601 201.248764,297.740479 201.007034,297.713379 
	C191.084274,296.601898 185.873856,302.811829 181.391510,310.230316 
	C180.448944,311.790344 179.269730,313.207336 177.992386,314.980469 
z"/>
<path fill="#F3F3F3" opacity="1.000000" stroke="none" 
	d="
M206.060898,308.501404 
	C210.282700,312.105682 210.112045,319.143799 205.713074,323.421173 
	C201.422043,327.593567 196.910492,331.542358 192.430695,335.516022 
	C190.445892,337.276611 189.527359,338.794708 190.276047,341.887787 
	C190.809464,344.091400 189.565002,347.939331 187.801849,349.163391 
	C185.804733,350.549866 181.862030,350.805084 179.661804,349.725281 
	C177.728012,348.776306 176.634155,345.419586 175.911713,342.912292 
	C175.301376,340.794128 175.388702,338.289093 175.865433,336.107880 
	C176.190842,334.619019 177.461838,332.587250 178.748550,332.178497 
	C187.732376,329.324615 192.885117,322.390625 197.763885,315.087128 
	C199.045029,313.169250 199.987000,310.942505 201.574493,309.343964 
	C202.456192,308.456146 204.349274,308.572693 206.060898,308.501404 
z"/>
<path fill="#F3F3F3" opacity="1.000000" stroke="none" 
	d="
M327.840332,291.011902 
	C332.884491,295.658478 337.575378,300.172668 342.808563,305.208771 
	C341.729034,305.421326 341.936615,305.442810 342.047760,305.349457 
	C344.867157,302.981750 347.692139,300.019958 351.338959,303.936157 
	C353.594788,306.358673 352.500183,310.959015 349.195587,314.189484 
	C345.025421,318.266083 338.417145,317.976562 333.976593,313.505768 
	C333.511169,313.037170 332.963593,312.544952 332.741547,311.955444 
	C328.256622,300.048553 318.463562,296.668152 306.751129,296.253387 
	C306.751129,293.145752 306.751129,290.404480 306.751129,287.259216 
	C314.155945,286.214874 320.915710,287.944977 327.840332,291.011902 
z"/>
<path fill="#F4F4F4" opacity="1.000000" stroke="none" 
	d="
M318.046509,248.429565 
	C323.520294,248.452805 328.522217,248.754349 333.474213,248.385513 
	C336.059143,248.192963 338.796112,247.223618 341.038086,245.888977 
	C344.623077,243.754868 347.654663,244.153000 350.585480,246.734116 
	C353.729065,249.502594 354.552399,254.672089 352.342041,258.133667 
	C350.310913,261.314606 346.875793,263.027771 343.797760,261.086395 
	C338.056610,257.465393 331.986084,258.666595 325.984375,258.506470 
	C319.707153,258.339020 313.421967,258.469055 306.821289,258.469055 
	C306.821289,255.066956 306.821289,252.167191 306.821289,248.429672 
	C310.387299,248.429672 313.970642,248.429672 318.046509,248.429565 
z"/>
<path fill="#F2F3F2" opacity="1.000000" stroke="none" 
	d="
M238.058258,341.866211 
	C238.455597,331.433929 238.455597,321.171448 238.455597,310.496735 
	C242.167908,310.496735 245.191391,310.496735 248.837341,310.496735 
	C248.837341,322.950256 249.165817,335.357178 248.580978,347.720917 
	C248.452393,350.438965 245.492905,353.527283 243.054291,355.454803 
	C241.427414,356.740753 238.275574,356.922272 236.051605,356.447845 
	C232.026993,355.589325 229.901108,352.467834 230.189865,348.334747 
	C230.498840,343.912048 233.425964,342.070953 238.058258,341.866211 
z"/>
<path fill="#F2F3F2" opacity="1.000000" stroke="none" 
	d="
M271.256165,326.983612 
	C271.260071,331.779633 271.260071,336.079224 271.260071,340.547729 
	C272.548187,340.693146 273.339355,340.775452 274.128632,340.872742 
	C278.407898,341.400238 280.736511,343.876709 280.928680,348.122101 
	C281.107300,352.068085 279.269928,354.961365 275.397003,356.016815 
	C271.279602,357.138824 269.022552,354.918640 266.401093,351.687775 
	C255.997604,338.865723 264.257019,324.146088 260.295624,310.277893 
	C264.463654,310.277893 267.370758,310.277893 271.252258,310.277893 
	C271.252258,315.639343 271.252258,321.063263 271.256165,326.983612 
z"/>
<path fill="#F4F4F4" opacity="1.000000" stroke="none" 
	d="
M316.600159,319.355103 
	C321.180023,322.948303 325.401489,326.427856 329.823334,329.630798 
	C333.863495,332.557220 335.039429,336.969177 332.457825,340.854736 
	C329.889313,344.720642 322.084106,346.867157 319.161682,344.031403 
	C318.019928,342.923492 317.682770,339.910095 318.316650,338.286865 
	C319.421539,335.457306 318.457764,334.085754 316.475128,332.419067 
	C311.648163,328.361298 306.526215,324.508118 302.440277,319.779907 
	C300.536163,317.576447 300.053619,313.466888 300.346252,310.354797 
	C300.474854,308.987152 304.340485,306.778290 306.160217,307.077148 
	C308.233643,307.417755 310.156281,309.937439 311.708008,311.861877 
	C313.497223,314.080902 314.809662,316.684418 316.600159,319.355103 
z"/>
<path fill="#F3F3F3" opacity="1.000000" stroke="none" 
	d="
M307.431396,339.815369 
	C309.535370,345.339386 308.483826,349.062622 304.514557,351.254944 
	C299.758301,353.881958 296.056244,351.796509 295.288483,346.478271 
	C294.993134,344.432495 293.656616,342.461304 292.499023,340.644379 
	C291.813965,339.569153 290.672607,338.635254 289.529877,338.024048 
	C277.778961,331.739227 278.723511,321.234070 280.225861,310.218933 
	C283.174255,310.218933 286.083679,310.218933 289.381165,310.218933 
	C289.538086,311.562775 290.009552,312.891693 289.782104,314.087677 
	C288.182861,322.497437 291.749786,328.328522 298.562927,332.822418 
	C301.595154,334.822388 304.331329,337.271118 307.431396,339.815369 
z"/>
<path fill="#F3F3F3" opacity="1.000000" stroke="none" 
	d="
M288.069489,202.438370 
	C287.348969,197.893875 288.861633,195.029053 292.156525,192.226288 
	C298.093903,187.175705 303.548370,181.535049 308.953644,175.900208 
	C310.037445,174.770401 309.889160,172.524277 310.513550,170.870102 
	C311.160187,169.156845 311.792419,166.356491 312.894348,166.110901 
	C315.598053,165.508331 318.742676,165.591171 321.341675,166.477768 
	C322.318970,166.811142 322.781372,170.173447 322.600769,172.071381 
	C322.200623,176.276596 319.077820,178.767746 316.250885,181.681686 
	C310.011078,188.113510 304.394501,195.152023 298.558502,201.972809 
	C294.344208,206.898239 293.801331,206.967484 288.069489,202.438370 
z"/>
<path fill="#F3F3F3" opacity="1.000000" stroke="none" 
	d="
M218.100616,204.999283 
	C213.649445,206.439941 211.067780,204.931091 208.592743,201.509109 
	C204.110611,195.312057 199.158325,189.445892 194.233551,183.583359 
	C192.609543,181.650070 190.464828,180.154205 188.080551,178.033478 
	C187.819778,176.684509 187.035141,174.456299 187.067917,172.240173 
	C187.096268,170.323837 187.636093,167.101624 188.681198,166.771408 
	C191.327408,165.935303 194.548416,165.832275 197.204559,166.597366 
	C198.430038,166.950363 200.029633,170.601791 199.452820,171.746536 
	C197.768814,175.088715 199.663025,176.653351 201.495346,178.585327 
	C206.994247,184.383362 212.494583,190.180511 217.940491,196.028168 
	C220.525391,198.803741 221.709473,201.773331 218.100616,204.999283 
z"/>
<path fill="#F5F6F5" opacity="1.000000" stroke="none" 
	d="
M162.554199,258.719208 
	C157.517792,254.909653 156.421661,250.636688 159.271255,247.166306 
	C162.256729,243.530441 167.440063,243.756668 171.644333,247.301300 
	C172.969284,248.418381 175.067780,249.093887 176.831207,249.133835 
	C185.108978,249.321426 193.393372,249.217255 201.962097,249.217255 
	C201.962097,252.694275 201.962097,255.620377 201.962097,258.881592 
	C189.001907,258.881592 175.958511,258.881592 162.554199,258.719208 
z"/>
<path fill="#F3F3F3" opacity="1.000000" stroke="none" 
	d="
M220.098297,321.776154 
	C220.100082,317.696167 220.100082,314.078461 220.100082,310.212769 
	C223.577209,310.212769 226.491028,310.212769 230.035645,310.212769 
	C230.035645,316.779938 230.183258,323.220795 229.919556,329.644745 
	C229.862122,331.043762 228.518829,332.552643 227.449829,333.719757 
	C222.465164,339.161835 217.475800,344.608185 212.268311,349.833984 
	C209.607788,352.503876 206.666931,351.442749 204.341980,349.105865 
	C201.657410,346.407501 202.226898,341.854553 205.313553,339.412781 
	C208.960495,336.527802 212.549362,333.564056 216.283173,330.795990 
	C219.229462,328.611725 220.670090,325.913910 220.098297,321.776154 
z"/>
<path fill="#F4F4F4" opacity="1.000000" stroke="none" 
	d="
M258.897369,189.070892 
	C258.831818,194.539825 258.775146,199.518967 258.693024,204.497711 
	C258.687988,204.803619 258.481750,205.106201 258.231659,205.781586 
	C255.340012,205.781586 252.316025,205.781586 248.530914,205.781586 
	C248.530914,198.309860 248.602249,191.054489 248.488907,183.802002 
	C248.453369,181.527466 248.197556,179.178757 247.554703,177.008514 
	C246.438583,173.240509 248.424194,171.370239 251.337708,169.981842 
	C255.378311,168.056305 260.962036,169.079468 262.636139,172.162384 
	C264.273315,175.177307 262.501465,176.908524 260.545197,179.364487 
	C258.835205,181.511292 259.361938,185.439713 258.897369,189.070892 
z"/>
<path fill="#F4F4F4" opacity="1.000000" stroke="none" 
	d="
M165.740005,216.156097 
	C171.276581,219.768234 172.964844,223.305649 171.310837,227.267593 
	C169.647324,231.252258 164.989670,233.640472 160.689941,232.713455 
	C155.817505,231.662933 152.556595,227.443848 153.243896,223.079468 
	C154.064835,217.866531 158.900665,215.052628 165.740005,216.156097 
z"/>
<path fill="#F1F1F1" opacity="1.000000" stroke="none" 
	d="
M365.564026,380.814087 
	C360.718170,378.966339 358.562866,375.661407 359.328308,370.951965 
	C359.979431,366.946198 362.565674,364.385040 366.713074,363.988831 
	C370.821136,363.596436 373.808380,365.557861 375.452026,369.276031 
	C378.181946,375.451508 373.661224,380.924042 365.564026,380.814087 
z"/>
<path fill="#F2F3F2" opacity="1.000000" stroke="none" 
	d="
M365.508209,146.251831 
	C370.407532,145.636292 374.255280,147.312744 375.123260,151.693237 
	C375.667389,154.439301 374.562927,158.220001 372.844513,160.529129 
	C370.645020,163.484711 366.461151,164.192444 363.445099,161.830170 
	C361.258759,160.117767 359.342499,157.008392 358.962280,154.290222 
	C358.400391,150.273590 361.323486,147.665085 365.508209,146.251831 
z"/>
<path fill="#F4F4F4" opacity="1.000000" stroke="none" 
	d="
M148.446808,151.743347 
	C149.330521,156.174866 148.045441,159.872330 144.282196,161.142929 
	C141.533203,162.071060 137.415146,162.001785 135.181503,160.492081 
	C133.167145,159.130569 132.024612,155.201843 132.045334,152.416855 
	C132.073868,148.582489 135.139709,146.241760 138.939453,145.751221 
	C143.386597,145.177078 146.656464,147.059723 148.446808,151.743347 
z"/>
<path fill="#F1F1F1" opacity="1.000000" stroke="none" 
	d="
M141.526184,380.702515 
	C134.651276,380.536163 130.715836,376.860138 131.454529,371.539246 
	C132.015152,367.500977 134.358429,364.782532 138.428757,364.099701 
	C142.740906,363.376343 146.021545,365.279602 147.642853,369.266144 
	C149.165741,373.010773 148.334839,376.495453 144.999878,379.057159 
	C144.099564,379.748718 142.944214,380.108276 141.526184,380.702515 
z"/>
<path fill="#ECECEC" opacity="1.000000" stroke="none" 
	d="
M184.383057,238.820953 
	C183.449448,236.017548 182.294983,233.401703 182.568939,230.945145 
	C182.660904,230.120468 186.365906,229.306458 188.461594,229.178787 
	C192.880234,228.909592 197.326675,229.096893 201.994598,229.096893 
	C201.994598,232.843521 201.994598,235.936401 201.994598,239.958710 
	C196.120712,239.656769 190.420502,239.363739 184.383057,238.820953 
z"/>
<path fill="#ECECEC" opacity="1.000000" stroke="none" 
	d="
M306.981995,228.994720 
	C311.985687,228.712570 316.636749,228.819687 321.271393,228.592102 
	C325.080811,228.405029 325.770020,230.720566 325.714905,233.623077 
	C325.658813,236.575775 325.292480,239.191589 321.050323,238.889359 
	C316.317963,238.552216 311.543060,238.812057 306.622284,238.812057 
	C306.622284,235.098770 306.622284,232.168991 306.981995,228.994720 
z"/>
<path fill="#EDEEEE" opacity="1.000000" stroke="none" 
	d="
M311.268188,268.056366 
	C316.028687,268.052795 320.322723,268.052795 325.069885,268.052795 
	C325.069885,271.505676 325.069885,274.556335 325.069885,277.920227 
	C318.787781,277.920227 312.886353,277.920227 307.011200,277.920227 
	C305.346497,269.576172 305.805786,268.408783 311.268188,268.056366 
z"/>
<path fill="#F3F3F3" opacity="1.000000" stroke="none" 
	d="
M187.477478,268.882599 
	C192.470566,268.678009 197.048599,268.678009 201.919357,268.678009 
	C201.919357,272.177216 201.919357,275.243195 201.919357,278.853973 
	C197.620743,278.853973 192.951523,279.815796 188.933792,278.608856 
	C183.987656,277.123047 185.987976,272.650848 187.477478,268.882599 
z"/>
<path fill="#828383" opacity="1.000000" stroke="none" 
	d="
M384.321320,281.077209 
	C384.003632,278.979706 383.937134,276.893188 383.971893,274.369476 
	C384.073181,273.932281 384.550903,273.920349 384.786346,273.961121 
	C385.202789,276.151733 385.383789,278.301544 385.315430,280.721741 
	C384.901581,281.024109 384.737061,281.056122 384.321320,281.077209 
z"/>
<path fill="#020202" opacity="1.000000" stroke="none" 
	d="
M285.281921,284.660034 
	C283.605316,286.231842 281.998291,288.275635 280.364929,288.296906 
	C263.038422,288.522827 245.707703,288.411804 228.378174,288.432068 
	C224.595001,288.436523 223.046143,286.677734 223.072464,282.888397 
	C223.185913,266.559174 223.219757,250.228668 223.140671,233.899292 
	C223.120331,229.700638 224.700790,227.867615 229.036270,227.884827 
	C245.698822,227.950958 262.363647,227.926788 279.024261,227.694183 
	C283.833374,227.627045 285.544128,229.547989 285.498413,234.204468 
	C285.334900,250.866226 285.375732,267.529999 285.281921,284.660034 
z"/>
</svg>