<svg version="1.1" id="Layer_1" xmlns="http://www.w3.org/2000/svg" xmlns:xlink="http://www.w3.org/1999/xlink" x="0px" y="0px"
	 width="100%" viewBox="0 0 512 512" enable-background="new 0 0 512 512" xml:space="preserve">
<path fill="#020202" opacity="1.000000" stroke="none" 
	d="
M276.000000,513.000000 
	C184.022324,513.000000 92.544647,513.000000 1.033484,513.000000 
	C1.033484,342.397308 1.033484,171.794586 1.033484,1.095938 
	C171.561035,1.095938 342.122131,1.095938 512.841614,1.095938 
	C512.841614,171.666550 512.841614,342.333252 512.841614,513.000000 
	C434.127899,513.000000 355.313934,513.000000 276.000000,513.000000 
M337.982941,246.318054 
	C332.408783,239.855347 325.333923,237.950775 317.233185,239.856491 
	C314.631958,240.468445 313.124817,240.086624 311.356628,237.922821 
	C307.190857,232.824936 301.406769,231.606522 295.098053,232.354492 
	C293.220459,232.577087 291.354309,232.896133 289.193268,233.213547 
	C289.193268,225.419647 289.342957,218.261871 289.151154,211.113235 
	C288.959778,203.980438 288.772400,196.817596 287.970062,189.737427 
	C286.352722,175.465500 275.881927,165.826233 262.093018,165.392868 
	C248.921524,164.978912 236.735474,174.729218 234.280258,188.087585 
	C232.718018,196.587479 233.906662,204.584396 240.756271,211.472046 
	C244.118958,206.240768 245.855789,201.093658 245.689026,195.221603 
	C245.423187,185.861023 250.111664,179.050674 258.154388,177.054031 
	C262.038452,176.089828 265.920197,175.961685 269.366241,179.244614 
	C255.598557,182.262314 251.026474,187.961761 251.013382,201.862015 
	C250.994400,222.022186 251.018890,242.182373 251.024750,262.342560 
	C251.025162,263.739349 251.024796,265.136139 251.024796,267.151245 
	C247.364380,264.531738 244.581955,262.151825 241.454422,260.381653 
	C234.515030,256.454010 225.894974,258.573822 219.896240,265.363586 
	C214.641434,271.311340 214.427094,278.007111 219.454712,284.911987 
	C232.395538,302.684875 245.489273,320.347656 258.276093,338.230225 
	C260.358246,341.142181 261.186462,344.950745 262.813019,348.872345 
	C260.285278,349.003906 258.972504,349.111664 257.658234,349.134125 
	C250.427719,349.257843 248.745331,350.879913 248.732910,357.892975 
	C248.716965,366.890045 248.707733,375.887360 248.752029,384.884247 
	C248.780075,390.582825 250.907455,392.881866 256.471436,392.885712 
	C290.293823,392.909088 324.116333,392.889160 357.938660,392.817169 
	C363.509247,392.805328 365.772583,390.432770 365.808533,384.874084 
	C365.860229,376.877045 365.804749,368.879333 365.796173,360.881897 
	C365.784363,349.881042 365.622528,349.711731 354.925537,349.061340 
	C354.509094,349.036011 354.113922,348.660767 352.716736,347.928741 
	C354.493652,343.040009 355.798615,337.875244 358.171112,333.259155 
	C362.723969,324.400665 366.256531,315.393127 366.223877,305.260162 
	C366.183075,292.597778 366.313965,279.934448 366.211334,267.272797 
	C366.104462,254.082626 355.789093,245.340546 342.696838,247.091064 
	C341.339539,247.272552 339.924469,247.021896 337.982941,246.318054 
M338.500458,105.668800 
	C270.838623,105.680573 203.176743,105.649078 135.514984,105.726730 
	C110.626984,105.755295 92.950287,123.474007 92.925125,148.224915 
	C92.891914,180.889679 92.901390,213.554550 92.954735,246.219299 
	C92.993637,270.039764 110.484772,287.645111 134.259872,287.724518 
	C157.758240,287.803009 181.257156,287.723999 204.755814,287.694763 
	C206.350983,287.692780 207.945953,287.528900 210.127731,287.407715 
	C209.154785,285.027435 208.120026,283.296967 207.748230,281.434174 
	C206.691071,276.137482 203.503632,275.175293 198.474243,275.244324 
	C177.146255,275.537140 155.811493,275.426849 134.479813,275.329590 
	C117.214165,275.250854 105.179115,263.211456 105.155907,246.076141 
	C105.111450,213.244720 105.088226,180.413101 105.155220,147.581772 
	C105.189682,130.694336 117.721870,118.017761 134.444382,118.009438 
	C217.606339,117.968048 300.768341,117.972374 383.930328,118.017715 
	C401.416565,118.027245 413.830566,130.525803 413.850586,147.949615 
	C413.887939,180.447739 413.894165,212.945908 413.884521,245.444061 
	C413.879333,262.921204 402.012512,275.004059 384.550964,275.337524 
	C380.604645,275.412903 376.655670,275.348572 372.669250,275.348572 
	C372.669250,279.866791 372.669250,283.721527 372.669250,287.705719 
	C376.945007,287.705719 380.772064,287.740082 384.598328,287.700134 
	C408.488007,287.450653 426.122406,269.710815 426.151367,245.771637 
	C426.190643,213.273544 426.169006,180.775269 426.108276,148.277191 
	C426.062256,123.642632 408.223511,105.821243 383.497955,105.690231 
	C368.832520,105.612518 354.166321,105.671913 338.500458,105.668800 
M261.544098,138.394165 
	C233.126404,139.893875 211.147888,160.239212 208.220139,187.831161 
	C205.248337,215.838272 224.420731,238.128220 241.507019,243.561600 
	C244.683945,235.636261 243.998642,233.021667 237.571579,227.985977 
	C235.871109,226.653625 234.220428,225.233154 232.696228,223.704285 
	C217.776794,208.738754 215.970352,185.581940 228.342407,168.377808 
	C240.381760,151.636261 262.267181,146.021179 280.333252,155.038635 
	C304.048004,166.875549 311.078796,196.052673 295.721100,218.606079 
	C293.749237,221.501877 292.190002,224.678650 290.239563,228.073486 
	C303.498901,230.092667 302.186432,231.747116 308.537292,221.080399 
	C330.031555,184.979202 305.377167,140.979279 261.544098,138.394165 
M159.499863,181.840744 
	C171.461517,181.840744 183.423157,181.840744 195.646744,181.840744 
	C196.477402,177.617264 197.225372,173.814240 197.972488,170.015503 
	C196.904953,169.699722 196.434631,169.439178 195.964142,169.438889 
	C175.312195,169.426270 154.660202,169.418335 134.008301,169.460495 
	C130.115524,169.468445 127.481438,171.405182 127.407089,175.408661 
	C127.329521,179.585297 129.826859,181.848785 134.016861,181.875412 
	C142.177475,181.927261 150.338806,181.860565 159.499863,181.840744 
M391.747406,171.890594 
	C389.346893,171.065384 386.954407,169.552872 384.544586,169.524750 
	C366.766479,169.317215 348.984863,169.389694 331.204437,169.420746 
	C328.869354,169.424820 325.302246,168.705658 326.438507,172.795364 
	C327.345520,176.059982 324.101379,181.932465 331.441864,181.895767 
	C349.388123,181.806046 367.335205,181.886780 385.281616,181.816635 
	C391.611176,181.791901 393.755920,178.796692 391.747406,171.890594 
M149.500977,198.706711 
	C144.014572,198.717590 138.462173,198.246643 133.075287,198.984222 
	C131.014862,199.266357 128.431030,202.006226 127.694412,204.172989 
	C126.645119,207.259399 128.528778,209.974457 131.910461,210.976898 
	C132.996964,211.298965 134.213577,211.256531 135.370529,211.255386 
	C154.656860,211.236450 173.943192,211.204605 193.229446,211.147064 
	C194.500641,211.143280 195.771149,210.909195 197.378601,210.748581 
	C196.959656,206.638824 196.577682,202.891632 196.151443,198.710236 
	C180.708176,198.710236 165.604431,198.710236 149.500977,198.706711 
M349.289795,141.296326 
	C344.543091,142.390717 344.760559,146.101501 345.222717,149.597092 
	C345.714264,153.315521 348.536407,154.064636 351.857269,154.043091 
	C362.982849,153.970917 374.109161,154.024475 385.235016,153.984528 
	C390.460297,153.965775 393.075653,151.867767 393.116516,147.813782 
	C393.159271,143.570419 390.371918,141.270477 385.029602,141.255249 
	C373.405579,141.222137 361.781372,141.230316 349.289795,141.296326 
M128.390930,236.235184 
	C130.533676,237.224808 132.655716,239.012604 134.822708,239.068863 
	C145.443268,239.344589 156.076218,239.207428 166.703918,239.116165 
	C171.727478,239.073029 173.195923,237.360291 173.363266,232.594299 
	C173.528854,227.879211 171.067825,226.568253 166.871323,226.613083 
	C156.244034,226.726608 145.614609,226.633072 134.986923,226.723679 
	C128.674347,226.777496 126.868362,229.154678 128.390930,236.235184 
M155.496704,154.180008 
	C159.822189,154.170883 164.147964,154.127182 168.473099,154.161987 
	C173.180161,154.199875 174.295013,151.429199 174.275818,147.331787 
	C174.256577,143.227859 172.237198,141.714539 168.394485,141.727936 
	C157.081818,141.767365 145.768524,141.776886 134.456192,141.697449 
	C130.293640,141.668228 127.696045,143.338058 127.417664,147.643982 
	C127.170036,151.474060 130.026154,154.092392 134.534286,154.155289 
	C141.187622,154.248108 147.843201,154.180008 155.496704,154.180008 
M344.512939,198.755508 
	C341.347687,198.753189 338.181366,198.803040 335.017487,198.735550 
	C330.927856,198.648285 328.182922,200.181519 327.912079,204.594498 
	C327.664185,208.633881 330.231293,211.090363 334.884857,211.125214 
	C345.379547,211.203812 355.875397,211.202393 366.370300,211.145737 
	C371.299774,211.119141 373.805328,208.983002 373.838928,205.072647 
	C373.872559,201.158401 371.312195,198.880035 366.498688,198.815796 
	C359.502960,198.722427 352.505371,198.770386 344.512939,198.755508 
M198.444214,154.267136 
	C200.265350,154.255783 202.098846,154.375244 203.904968,154.204849 
	C207.274139,153.887009 211.000458,149.397797 210.469849,146.085632 
	C209.865662,142.314102 206.959213,141.739838 203.730804,141.793869 
	C199.923737,141.857590 196.112656,141.754333 192.308029,141.873505 
	C188.476166,141.993546 186.562927,144.369370 186.447815,147.937881 
	C186.329391,151.609146 188.449799,153.798477 192.098236,154.223267 
	C193.895370,154.432495 195.736267,154.265732 198.444214,154.267136 
M373.973724,227.289520 
	C371.049988,229.121307 369.585541,232.079437 371.341003,234.847687 
	C372.593140,236.822296 375.550079,238.219376 378.000427,238.798325 
	C380.820404,239.464615 383.932922,239.117493 386.895477,238.899368 
	C390.725983,238.617310 393.007324,236.517563 392.964661,232.500137 
	C392.924255,228.695053 390.763000,226.623047 387.078461,226.557892 
	C382.965240,226.485168 378.844910,226.812790 373.973724,227.289520 
M196.482147,226.517441 
	C193.998581,226.577637 191.206665,225.952667 189.118835,226.892227 
	C187.063599,227.817154 184.577606,230.218384 184.389709,232.174423 
	C184.202042,234.128067 186.394760,237.905304 187.952164,238.136795 
	C192.901550,238.872467 198.153992,238.856720 203.010132,237.821640 
	C203.955444,237.620132 203.666534,231.530136 203.887482,228.152359 
	C203.915024,227.731171 203.575943,227.286011 203.275085,226.514221 
	C201.332993,226.514221 199.369705,226.514221 196.482147,226.517441 
M332.494354,151.955429 
	C335.932556,145.724762 333.622986,141.633575 326.558258,141.470718 
	C324.899536,141.432480 323.226135,141.346207 321.581848,141.508545 
	C318.170807,141.845306 315.430542,143.818375 316.058167,147.179260 
	C316.512512,149.612534 318.813416,153.100464 320.838593,153.528870 
	C324.296326,154.260300 328.183777,152.960129 332.494354,151.955429 
M390.945404,209.487442 
	C394.232544,204.178940 392.800446,198.816727 387.894897,198.910980 
	C385.967285,198.948029 383.082275,200.505417 382.427246,202.105042 
	C381.652130,203.997971 382.015778,207.537018 383.356598,208.795456 
	C384.789612,210.140411 387.937225,209.658539 390.945404,209.487442 
z"/>
<path fill="#F7F8F7" opacity="1.000000" stroke="none" 
	d="
M338.259583,246.644897 
	C339.924469,247.021896 341.339539,247.272552 342.696838,247.091064 
	C355.789093,245.340546 366.104462,254.082626 366.211334,267.272797 
	C366.313965,279.934448 366.183075,292.597778 366.223877,305.260162 
	C366.256531,315.393127 362.723969,324.400665 358.171112,333.259155 
	C355.798615,337.875244 354.493652,343.040009 352.716736,347.928741 
	C354.113922,348.660767 354.509094,349.036011 354.925537,349.061340 
	C365.622528,349.711731 365.784363,349.881042 365.796173,360.881897 
	C365.804749,368.879333 365.860229,376.877045 365.808533,384.874084 
	C365.772583,390.432770 363.509247,392.805328 357.938660,392.817169 
	C324.116333,392.889160 290.293823,392.909088 256.471436,392.885712 
	C250.907455,392.881866 248.780075,390.582825 248.752029,384.884247 
	C248.707733,375.887360 248.716965,366.890045 248.732910,357.892975 
	C248.745331,350.879913 250.427719,349.257843 257.658234,349.134125 
	C258.972504,349.111664 260.285278,349.003906 262.813019,348.872345 
	C261.186462,344.950745 260.358246,341.142181 258.276093,338.230225 
	C245.489273,320.347656 232.395538,302.684875 219.454712,284.911987 
	C214.427094,278.007111 214.641434,271.311340 219.896240,265.363586 
	C225.894974,258.573822 234.515030,256.454010 241.454422,260.381653 
	C244.581955,262.151825 247.364380,264.531738 251.024796,267.151245 
	C251.024796,265.136139 251.025162,263.739349 251.024750,262.342560 
	C251.018890,242.182373 250.994400,222.022186 251.013382,201.862015 
	C251.026474,187.961761 255.598557,182.262314 269.366241,179.244614 
	C265.920197,175.961685 262.038452,176.089828 258.154388,177.054031 
	C250.111664,179.050674 245.423187,185.861023 245.689026,195.221603 
	C245.855789,201.093658 244.118958,206.240768 240.756271,211.472046 
	C233.906662,204.584396 232.718018,196.587479 234.280258,188.087585 
	C236.735474,174.729218 248.921524,164.978912 262.093018,165.392868 
	C275.881927,165.826233 286.352722,175.465500 287.970062,189.737427 
	C288.772400,196.817596 288.959778,203.980438 289.151154,211.113235 
	C289.342957,218.261871 289.193268,225.419647 289.193268,233.213547 
	C291.354309,232.896133 293.220459,232.577087 295.098053,232.354492 
	C301.406769,231.606522 307.190857,232.824936 311.356628,237.922821 
	C313.124817,240.086624 314.631958,240.468445 317.233185,239.856491 
	C325.333923,237.950775 332.408783,239.855347 338.259583,246.644897 
M249.159470,305.314941 
	C252.549454,310.054352 256.011108,314.744385 259.314087,319.543701 
	C265.627960,328.717896 275.130219,336.159058 274.534271,348.745544 
	C297.035248,348.745544 318.767212,348.745544 340.955933,348.745544 
	C341.168182,338.683807 345.089294,330.244446 349.784058,321.855408 
	C352.212219,317.516541 353.568024,312.092651 353.776886,307.090820 
	C354.325348,293.956909 353.998291,280.785583 353.977997,267.629242 
	C353.971191,263.219360 351.717926,260.308990 347.476959,259.340881 
	C343.695068,258.477509 341.396606,260.310822 339.584442,263.784119 
	C338.723938,265.433441 335.751038,267.336975 334.273071,266.968384 
	C332.378601,266.495819 330.738953,264.025238 329.550568,262.073822 
	C328.866364,260.950256 329.267181,259.152649 329.219696,257.657166 
	C329.097992,253.825928 326.931793,251.847137 323.317017,251.497879 
	C319.497589,251.128845 316.429718,252.072861 315.404907,256.485168 
	C314.573395,260.065399 312.068054,261.863983 308.389587,261.363464 
	C304.344269,260.813019 302.900726,258.066345 303.071869,254.221390 
	C303.138458,252.724915 303.108765,251.224319 303.134552,249.725815 
	C303.207214,245.504318 300.701416,244.168930 296.998749,244.436279 
	C292.776031,244.741180 290.368652,247.164200 289.597961,251.286041 
	C288.809723,255.501480 286.845154,258.674469 282.003387,258.072052 
	C277.132660,257.466003 276.952393,253.681351 276.966125,249.778275 
	C277.025940,232.791428 277.027649,215.804047 276.954529,198.817291 
	C276.935028,194.282486 274.440765,191.811111 270.326172,191.780334 
	C266.175964,191.749283 263.673523,194.150528 263.344879,198.593140 
	C263.222290,200.250595 263.278442,201.922302 263.277496,203.587540 
	C263.262909,229.734299 263.234497,255.881058 263.263458,282.027771 
	C263.267059,285.275940 262.676758,288.623657 259.225952,289.090759 
	C256.903992,289.404999 253.751968,288.208588 251.918900,286.604889 
	C247.296326,282.560730 243.216583,277.897217 238.906097,273.494843 
	C236.200378,270.731445 233.209259,270.010590 230.077042,272.687744 
	C226.802048,275.486877 229.465515,277.731293 231.036484,279.943939 
	C236.915283,288.224030 242.847458,296.466156 249.159470,305.314941 
M262.087891,361.554871 
	C261.604767,367.786041 261.121643,374.017212 260.640961,380.216736 
	C292.290863,380.216736 322.771088,380.216736 353.169006,380.216736 
	C353.169006,373.725220 353.169006,367.666901 353.169006,361.423279 
	C322.838776,361.423279 292.918427,361.423279 262.087891,361.554871 
z"/>
<path fill="#F7F7F6" opacity="1.000000" stroke="none" 
	d="
M339.000488,105.669228 
	C354.166321,105.671913 368.832520,105.612518 383.497955,105.690231 
	C408.223511,105.821243 426.062256,123.642632 426.108276,148.277191 
	C426.169006,180.775269 426.190643,213.273544 426.151367,245.771637 
	C426.122406,269.710815 408.488007,287.450653 384.598328,287.700134 
	C380.772064,287.740082 376.945007,287.705719 372.669250,287.705719 
	C372.669250,283.721527 372.669250,279.866791 372.669250,275.348572 
	C376.655670,275.348572 380.604645,275.412903 384.550964,275.337524 
	C402.012512,275.004059 413.879333,262.921204 413.884521,245.444061 
	C413.894165,212.945908 413.887939,180.447739 413.850586,147.949615 
	C413.830566,130.525803 401.416565,118.027245 383.930328,118.017715 
	C300.768341,117.972374 217.606339,117.968048 134.444382,118.009438 
	C117.721870,118.017761 105.189682,130.694336 105.155220,147.581772 
	C105.088226,180.413101 105.111450,213.244720 105.155907,246.076141 
	C105.179115,263.211456 117.214165,275.250854 134.479813,275.329590 
	C155.811493,275.426849 177.146255,275.537140 198.474243,275.244324 
	C203.503632,275.175293 206.691071,276.137482 207.748230,281.434174 
	C208.120026,283.296967 209.154785,285.027435 210.127731,287.407715 
	C207.945953,287.528900 206.350983,287.692780 204.755814,287.694763 
	C181.257156,287.723999 157.758240,287.803009 134.259872,287.724518 
	C110.484772,287.645111 92.993637,270.039764 92.954735,246.219299 
	C92.901390,213.554550 92.891914,180.889679 92.925125,148.224915 
	C92.950287,123.474007 110.626984,105.755295 135.514984,105.726730 
	C203.176743,105.649078 270.838623,105.680573 339.000488,105.669228 
z"/>
<path fill="#F6F6F6" opacity="1.000000" stroke="none" 
	d="
M261.998871,138.394058 
	C305.377167,140.979279 330.031555,184.979202 308.537292,221.080399 
	C302.186432,231.747116 303.498901,230.092667 290.239563,228.073486 
	C292.190002,224.678650 293.749237,221.501877 295.721100,218.606079 
	C311.078796,196.052673 304.048004,166.875549 280.333252,155.038635 
	C262.267181,146.021179 240.381760,151.636261 228.342407,168.377808 
	C215.970352,185.581940 217.776794,208.738754 232.696228,223.704285 
	C234.220428,225.233154 235.871109,226.653625 237.571579,227.985977 
	C243.998642,233.021667 244.683945,235.636261 241.507019,243.561600 
	C224.420731,238.128220 205.248337,215.838272 208.220139,187.831161 
	C211.147888,160.239212 233.126404,139.893875 261.998871,138.394058 
z"/>
<path fill="#F0F0F0" opacity="1.000000" stroke="none" 
	d="
M158.999847,181.841858 
	C150.338806,181.860565 142.177475,181.927261 134.016861,181.875412 
	C129.826859,181.848785 127.329521,179.585297 127.407089,175.408661 
	C127.481438,171.405182 130.115524,169.468445 134.008301,169.460495 
	C154.660202,169.418335 175.312195,169.426270 195.964142,169.438889 
	C196.434631,169.439178 196.904953,169.699722 197.972488,170.015503 
	C197.225372,173.814240 196.477402,177.617264 195.646744,181.840744 
	C183.423157,181.840744 171.461517,181.840744 158.999847,181.841858 
z"/>
<path fill="#EDEDED" opacity="1.000000" stroke="none" 
	d="
M391.969849,172.215271 
	C393.755920,178.796692 391.611176,181.791901 385.281616,181.816635 
	C367.335205,181.886780 349.388123,181.806046 331.441864,181.895767 
	C324.101379,181.932465 327.345520,176.059982 326.438507,172.795364 
	C325.302246,168.705658 328.869354,169.424820 331.204437,169.420746 
	C348.984863,169.389694 366.766479,169.317215 384.544586,169.524750 
	C386.954407,169.552872 389.346893,171.065384 391.969849,172.215271 
z"/>
<path fill="#FAFAFA" opacity="1.000000" stroke="none" 
	d="
M150.000824,198.708466 
	C165.604431,198.710236 180.708176,198.710236 196.151443,198.710236 
	C196.577682,202.891632 196.959656,206.638824 197.378601,210.748581 
	C195.771149,210.909195 194.500641,211.143280 193.229446,211.147064 
	C173.943192,211.204605 154.656860,211.236450 135.370529,211.255386 
	C134.213577,211.256531 132.996964,211.298965 131.910461,210.976898 
	C128.528778,209.974457 126.645119,207.259399 127.694412,204.172989 
	C128.431030,202.006226 131.014862,199.266357 133.075287,198.984222 
	C138.462173,198.246643 144.014572,198.717590 150.000824,198.708466 
z"/>
<path fill="#F2F2F2" opacity="1.000000" stroke="none" 
	d="
M349.723511,141.258972 
	C361.781372,141.230316 373.405579,141.222137 385.029602,141.255249 
	C390.371918,141.270477 393.159271,143.570419 393.116516,147.813782 
	C393.075653,151.867767 390.460297,153.965775 385.235016,153.984528 
	C374.109161,154.024475 362.982849,153.970917 351.857269,154.043091 
	C348.536407,154.064636 345.714264,153.315521 345.222717,149.597092 
	C344.760559,146.101501 344.543091,142.390717 349.723511,141.258972 
z"/>
<path fill="#F9F9F8" opacity="1.000000" stroke="none" 
	d="
M128.192123,235.903793 
	C126.868362,229.154678 128.674347,226.777496 134.986923,226.723679 
	C145.614609,226.633072 156.244034,226.726608 166.871323,226.613083 
	C171.067825,226.568253 173.528854,227.879211 173.363266,232.594299 
	C173.195923,237.360291 171.727478,239.073029 166.703918,239.116165 
	C156.076218,239.207428 145.443268,239.344589 134.822708,239.068863 
	C132.655716,239.012604 130.533676,237.224808 128.192123,235.903793 
z"/>
<path fill="#F9F9F9" opacity="1.000000" stroke="none" 
	d="
M154.997269,154.180237 
	C147.843201,154.180008 141.187622,154.248108 134.534286,154.155289 
	C130.026154,154.092392 127.170036,151.474060 127.417664,147.643982 
	C127.696045,143.338058 130.293640,141.668228 134.456192,141.697449 
	C145.768524,141.776886 157.081818,141.767365 168.394485,141.727936 
	C172.237198,141.714539 174.256577,143.227859 174.275818,147.331787 
	C174.295013,151.429199 173.180161,154.199875 168.473099,154.161987 
	C164.147964,154.127182 159.822189,154.170883 154.997269,154.180237 
z"/>
<path fill="#F8F8F7" opacity="1.000000" stroke="none" 
	d="
M345.010742,198.756790 
	C352.505371,198.770386 359.502960,198.722427 366.498688,198.815796 
	C371.312195,198.880035 373.872559,201.158401 373.838928,205.072647 
	C373.805328,208.983002 371.299774,211.119141 366.370300,211.145737 
	C355.875397,211.202393 345.379547,211.203812 334.884857,211.125214 
	C330.231293,211.090363 327.664185,208.633881 327.912079,204.594498 
	C328.182922,200.181519 330.927856,198.648285 335.017487,198.735550 
	C338.181366,198.803040 341.347687,198.753189 345.010742,198.756790 
z"/>
<path fill="#F5F6F5" opacity="1.000000" stroke="none" 
	d="
M198.000793,154.268127 
	C195.736267,154.265732 193.895370,154.432495 192.098236,154.223267 
	C188.449799,153.798477 186.329391,151.609146 186.447815,147.937881 
	C186.562927,144.369370 188.476166,141.993546 192.308029,141.873505 
	C196.112656,141.754333 199.923737,141.857590 203.730804,141.793869 
	C206.959213,141.739838 209.865662,142.314102 210.469849,146.085632 
	C211.000458,149.397797 207.274139,153.887009 203.904968,154.204849 
	C202.098846,154.375244 200.265350,154.255783 198.000793,154.268127 
z"/>
<path fill="#F4F4F4" opacity="1.000000" stroke="none" 
	d="
M374.350708,227.127838 
	C378.844910,226.812790 382.965240,226.485168 387.078461,226.557892 
	C390.763000,226.623047 392.924255,228.695053 392.964661,232.500137 
	C393.007324,236.517563 390.725983,238.617310 386.895477,238.899368 
	C383.932922,239.117493 380.820404,239.464615 378.000427,238.798325 
	C375.550079,238.219376 372.593140,236.822296 371.341003,234.847687 
	C369.585541,232.079437 371.049988,229.121307 374.350708,227.127838 
z"/>
<path fill="#F4F4F4" opacity="1.000000" stroke="none" 
	d="
M196.944275,226.515839 
	C199.369705,226.514221 201.332993,226.514221 203.275085,226.514221 
	C203.575943,227.286011 203.915024,227.731171 203.887482,228.152359 
	C203.666534,231.530136 203.955444,237.620132 203.010132,237.821640 
	C198.153992,238.856720 192.901550,238.872467 187.952164,238.136795 
	C186.394760,237.905304 184.202042,234.128067 184.389709,232.174423 
	C184.577606,230.218384 187.063599,227.817154 189.118835,226.892227 
	C191.206665,225.952667 193.998581,226.577637 196.944275,226.515839 
z"/>
<path fill="#F1F1F1" opacity="1.000000" stroke="none" 
	d="
M332.192566,152.234375 
	C328.183777,152.960129 324.296326,154.260300 320.838593,153.528870 
	C318.813416,153.100464 316.512512,149.612534 316.058167,147.179260 
	C315.430542,143.818375 318.170807,141.845306 321.581848,141.508545 
	C323.226135,141.346207 324.899536,141.432480 326.558258,141.470718 
	C333.622986,141.633575 335.932556,145.724762 332.192566,152.234375 
z"/>
<path fill="#F0F0F0" opacity="1.000000" stroke="none" 
	d="
M390.640900,209.730774 
	C387.937225,209.658539 384.789612,210.140411 383.356598,208.795456 
	C382.015778,207.537018 381.652130,203.997971 382.427246,202.105042 
	C383.082275,200.505417 385.967285,198.948029 387.894897,198.910980 
	C392.800446,198.816727 394.232544,204.178940 390.640900,209.730774 
z"/>
<path fill="#040404" opacity="1.000000" stroke="none" 
	d="
M248.959549,305.018738 
	C242.847458,296.466156 236.915283,288.224030 231.036484,279.943939 
	C229.465515,277.731293 226.802048,275.486877 230.077042,272.687744 
	C233.209259,270.010590 236.200378,270.731445 238.906097,273.494843 
	C243.216583,277.897217 247.296326,282.560730 251.918900,286.604889 
	C253.751968,288.208588 256.903992,289.404999 259.225952,289.090759 
	C262.676758,288.623657 263.267059,285.275940 263.263458,282.027771 
	C263.234497,255.881058 263.262909,229.734299 263.277496,203.587540 
	C263.278442,201.922302 263.222290,200.250595 263.344879,198.593140 
	C263.673523,194.150528 266.175964,191.749283 270.326172,191.780334 
	C274.440765,191.811111 276.935028,194.282486 276.954529,198.817291 
	C277.027649,215.804047 277.025940,232.791428 276.966125,249.778275 
	C276.952393,253.681351 277.132660,257.466003 282.003387,258.072052 
	C286.845154,258.674469 288.809723,255.501480 289.597961,251.286041 
	C290.368652,247.164200 292.776031,244.741180 296.998749,244.436279 
	C300.701416,244.168930 303.207214,245.504318 303.134552,249.725815 
	C303.108765,251.224319 303.138458,252.724915 303.071869,254.221390 
	C302.900726,258.066345 304.344269,260.813019 308.389587,261.363464 
	C312.068054,261.863983 314.573395,260.065399 315.404907,256.485168 
	C316.429718,252.072861 319.497589,251.128845 323.317017,251.497879 
	C326.931793,251.847137 329.097992,253.825928 329.219696,257.657166 
	C329.267181,259.152649 328.866364,260.950256 329.550568,262.073822 
	C330.738953,264.025238 332.378601,266.495819 334.273071,266.968384 
	C335.751038,267.336975 338.723938,265.433441 339.584442,263.784119 
	C341.396606,260.310822 343.695068,258.477509 347.476959,259.340881 
	C351.717926,260.308990 353.971191,263.219360 353.977997,267.629242 
	C353.998291,280.785583 354.325348,293.956909 353.776886,307.090820 
	C353.568024,312.092651 352.212219,317.516541 349.784058,321.855408 
	C345.089294,330.244446 341.168182,338.683807 340.955933,348.745544 
	C318.767212,348.745544 297.035248,348.745544 274.534271,348.745544 
	C275.130219,336.159058 265.627960,328.717896 259.314087,319.543701 
	C256.011108,314.744385 252.549454,310.054352 248.959549,305.018738 
z"/>
<path fill="#0F0E0E" opacity="1.000000" stroke="none" 
	d="
M262.542969,361.489075 
	C292.918427,361.423279 322.838776,361.423279 353.169006,361.423279 
	C353.169006,367.666901 353.169006,373.725220 353.169006,380.216736 
	C322.771088,380.216736 292.290863,380.216736 260.640961,380.216736 
	C261.121643,374.017212 261.604767,367.786041 262.542969,361.489075 
z"/>
</svg>