<svg version="1.1" id="Layer_1" xmlns="http://www.w3.org/2000/svg" xmlns:xlink="http://www.w3.org/1999/xlink" x="0px" y="0px"
	 width="100%" viewBox="0 0 512 512" enable-background="new 0 0 512 512" xml:space="preserve">
<path fill="#010101" opacity="1.000000" stroke="none" 
	d="
M344.000000,513.000000 
	C229.361191,513.000000 115.222374,513.000000 1.041779,513.000000 
	C1.041779,342.402832 1.041779,171.805649 1.041779,1.104233 
	C171.555481,1.104233 342.111053,1.104233 512.833313,1.104233 
	C512.833313,171.666534 512.833313,342.333252 512.833313,513.000000 
	C456.805573,513.000000 400.652802,513.000000 344.000000,513.000000 
M346.162659,250.460220 
	C349.664246,248.905075 349.218262,246.082397 347.166656,244.269012 
	C345.932617,243.178299 342.403656,242.922379 341.224182,243.893021 
	C338.655487,246.006897 338.619110,248.944580 342.524872,251.649765 
	C342.246887,252.119095 342.075073,252.726013 341.673798,253.035599 
	C338.902618,255.173553 338.302521,257.994293 340.878174,260.154236 
	C342.147919,261.219025 345.561432,261.316650 346.927612,260.341949 
	C349.657562,258.394257 349.354797,255.567062 346.709839,253.188828 
	C346.153503,252.688568 346.007233,251.732208 346.162659,250.460220 
M342.499847,229.694702 
	C339.316467,231.674683 337.852966,234.469315 340.755127,237.338272 
	C341.860016,238.430511 345.529419,238.595551 346.721741,237.606308 
	C349.772919,235.074722 348.912781,232.147232 345.770630,229.833572 
	C345.490204,229.627090 345.813354,228.600952 346.538574,227.872681 
	C349.120178,225.543808 349.331207,222.745819 346.682251,220.776138 
	C345.427765,219.843353 341.685272,219.945145 341.176666,220.812881 
	C340.187378,222.500900 340.553436,225.065506 340.652161,227.253738 
	C340.678284,227.833588 341.775208,228.365112 342.499847,229.694702 
M78.922279,374.340057 
	C78.884720,383.497253 79.738602,384.356171 88.846153,384.349304 
	C100.843719,384.340271 112.841286,384.339630 124.838844,384.327576 
	C151.333405,384.300995 177.828033,384.292114 204.322495,384.224060 
	C210.815903,384.207397 212.618225,382.344788 212.681030,375.895172 
	C212.716705,372.229950 212.639572,368.563751 212.628769,364.897949 
	C212.583633,349.574768 205.287796,336.822388 188.705215,333.039490 
	C188.444519,332.980072 188.250748,332.627228 187.714676,332.112823 
	C187.714676,319.240845 187.682983,306.086700 187.759857,292.933197 
	C187.768280,291.493866 188.248703,290.000458 188.767609,288.629608 
	C194.475449,273.550140 192.908081,259.295380 184.343933,245.641159 
	C183.401276,244.138245 183.084747,241.441605 183.763092,239.844482 
	C192.414841,219.473709 200.939087,199.031998 210.368011,179.019257 
	C212.915329,173.612610 218.179199,169.263275 225.276749,169.260635 
	C240.440323,169.254990 255.604996,169.348923 270.766998,169.190918 
	C277.766815,169.117981 284.312042,168.998108 290.197754,174.323776 
	C294.547028,178.259171 297.157898,183.670532 294.729828,189.268082 
	C291.155457,197.508286 291.910828,205.418427 296.051544,213.276566 
	C297.027802,215.129318 297.445312,217.472870 297.459839,219.595154 
	C297.490204,224.022675 300.495758,226.723694 304.383484,225.796661 
	C306.554932,225.278839 309.074982,224.995346 311.167725,225.577576 
	C323.260193,228.941986 335.525970,224.509369 342.014893,213.959351 
	C343.549347,211.464523 344.609009,208.677658 345.887054,206.025116 
	C346.049652,206.451172 346.212250,206.877213 346.374847,207.303253 
	C349.119507,206.561630 352.284454,206.399994 354.436371,204.840485 
	C355.558960,204.026932 355.831635,199.638504 354.851257,198.816101 
	C352.687744,197.001266 349.487000,196.422974 345.815613,194.991699 
	C344.476746,188.410675 340.804962,181.718353 333.908325,177.070709 
	C328.766174,173.605423 327.725342,168.788696 330.815735,163.183960 
	C337.692383,150.712433 335.322449,135.991074 324.860840,126.193512 
	C314.903351,116.868073 300.324463,115.706413 288.343567,123.034248 
	C286.362000,124.246239 283.781677,125.050430 281.471954,125.064857 
	C262.310242,125.184555 243.146286,125.148346 223.985489,124.934875 
	C221.721207,124.909645 219.086151,124.047760 217.278549,122.696640 
	C205.724442,114.060310 191.121628,113.333252 179.487900,121.117683 
	C167.900864,128.870834 163.038681,142.252502 166.538574,156.149719 
	C166.978043,157.894714 166.857162,160.144592 166.123672,161.765945 
	C157.001801,181.929489 147.659409,201.993256 138.537857,222.156937 
	C137.108551,225.316498 135.055542,226.910324 131.821671,228.017166 
	C112.306503,234.696457 100.088654,252.116333 100.973320,272.736420 
	C101.231956,278.764648 104.299149,284.674805 104.541267,290.700836 
	C105.100769,304.626282 104.719017,318.589539 104.719017,332.481262 
	C103.108437,332.996094 102.023422,333.376465 100.919571,333.690613 
	C88.385254,337.257874 80.134949,347.040222 79.132439,359.892517 
	C78.783363,364.367615 78.979851,368.885254 78.922279,374.340057 
M411.774078,288.356018 
	C409.700256,287.867645 407.630280,286.976471 405.551941,286.956451 
	C392.244141,286.828400 378.933929,286.821106 365.625610,286.919983 
	C358.311523,286.974335 354.328766,291.046600 354.274628,298.514313 
	C354.182922,311.157227 354.191315,323.801971 354.296112,336.444794 
	C354.360199,344.176514 358.372864,348.199402 365.974121,348.237030 
	C378.950104,348.301239 391.927094,348.292572 404.902985,348.209564 
	C412.926117,348.158234 416.856171,344.217651 416.895203,336.233948 
	C416.956177,323.756958 417.220612,311.266388 416.699707,298.810791 
	C416.558289,295.428650 413.906769,292.151520 411.774078,288.356018 
M339.761475,325.490784 
	C339.771393,316.329102 339.888336,307.165833 339.756012,298.006226 
	C339.657379,291.180267 335.555145,286.954987 328.895752,286.899902 
	C315.071014,286.785461 301.243561,286.782440 287.419312,286.930481 
	C281.206055,286.997009 276.995300,291.156586 276.933716,297.288971 
	C276.798187,310.780060 276.816010,324.274475 276.952087,337.765717 
	C277.014038,343.906586 281.209656,348.111542 287.381378,348.169373 
	C301.205811,348.298950 315.033417,348.291931 328.857635,348.144409 
	C335.260742,348.076141 339.386627,343.909851 339.729736,337.476959 
	C339.924652,333.822876 339.762787,330.149719 339.761475,325.490784 
M354.807617,150.499390 
	C354.817139,155.159805 354.783020,159.820801 354.845947,164.480484 
	C354.950500,172.219986 358.799500,176.073471 366.614594,176.104813 
	C379.430420,176.156204 392.246979,176.147842 405.062622,176.068649 
	C412.759552,176.021103 416.832397,172.003525 416.876007,164.394669 
	C416.947601,151.911926 416.929047,139.428223 416.871796,126.945290 
	C416.836945,119.349205 412.781128,115.163734 405.207520,115.102264 
	C392.225861,114.996895 379.242249,114.999161 366.260437,115.093239 
	C358.781860,115.147438 354.888184,119.093163 354.810944,126.530815 
	C354.731445,134.186279 354.802643,141.843323 354.807617,150.499390 
M304.658691,247.678894 
	C301.112823,246.206940 298.781128,247.617172 297.631683,250.971680 
	C295.967194,255.829315 297.389221,261.369385 300.490936,262.612030 
	C303.504761,263.819427 306.243469,262.757019 306.899139,259.834351 
	C307.777252,255.920044 308.834076,251.584167 304.658691,247.678894 
M386.280548,252.460999 
	C386.279144,251.798477 386.256744,251.135239 386.279846,250.473572 
	C386.405823,246.864990 385.226929,243.965500 381.166351,244.101746 
	C377.232635,244.233719 376.015656,247.131302 376.145355,250.722351 
	C376.175201,251.549332 376.164520,252.379013 376.140442,253.206512 
	C376.029968,257.008484 377.315735,260.004669 381.559448,259.944763 
	C385.704712,259.886261 386.522095,256.791992 386.280548,252.460999 
M234.321213,335.908051 
	C231.711166,335.698151 228.857498,334.747498 226.564453,335.501587 
	C224.557907,336.161469 223.181580,338.737701 221.526871,340.467377 
	C223.263458,342.097961 224.818848,344.025116 226.808838,345.240967 
	C227.894501,345.904266 229.830887,345.715332 231.179092,345.278931 
	C233.076584,344.664734 235.790573,343.833313 236.310272,342.417511 
	C236.917267,340.763916 235.538208,338.381287 234.321213,335.908051 
M242.090561,340.440063 
	C244.003601,345.263947 252.228790,347.404053 255.917709,344.037659 
	C258.227661,341.929657 258.035614,338.117249 255.525909,336.261810 
	C251.876175,333.563416 244.183899,335.512634 242.090561,340.440063 
M340.921417,140.879456 
	C339.298065,142.881073 336.885834,144.697281 336.355042,146.955673 
	C336.049530,148.255478 338.462097,151.072876 340.227875,151.792938 
	C343.622772,153.177338 346.421112,151.384674 347.661072,147.968903 
	C348.866516,144.648300 346.283783,141.759171 340.921417,140.879456 
M376.907318,236.632416 
	C379.400238,239.138062 382.470306,239.758575 384.782135,237.138367 
	C386.121918,235.619873 386.761261,232.536621 386.240570,230.542801 
	C385.437927,227.469238 382.498749,226.191223 379.423187,227.467361 
	C375.466187,229.109222 374.594360,232.205734 376.907318,236.632416 
M378.621490,276.120667 
	C382.409332,277.866791 385.684570,276.665192 386.529755,272.940887 
	C386.995544,270.888306 385.337128,267.473846 383.543579,266.099304 
	C382.358795,265.191315 378.523743,266.095306 377.127655,267.464722 
	C374.521301,270.021301 375.195282,273.227753 378.621490,276.120667 
M371.206848,206.582794 
	C368.774963,205.709457 366.316071,204.154510 363.922516,204.249283 
	C362.719330,204.296951 360.665558,207.393677 360.750519,209.019897 
	C360.849182,210.908325 362.501160,213.295349 364.179413,214.331680 
	C365.442261,215.111526 368.623535,214.781036 369.496185,213.733276 
	C370.839142,212.120911 370.935181,209.470032 371.206848,206.582794 
M307.080475,270.674438 
	C305.060577,268.167084 302.331268,267.051636 299.762482,269.050781 
	C298.231140,270.242584 296.841309,272.970184 297.112823,274.743256 
	C297.383728,276.512207 299.530060,278.744781 301.341888,279.377625 
	C305.707367,280.902405 308.543365,276.973236 307.080475,270.674438 
M268.500732,326.926910 
	C271.376495,325.153381 273.354156,322.465149 271.173126,319.551422 
	C269.819489,317.743042 266.410950,316.171021 264.358795,316.594788 
	C262.683807,316.940674 260.481689,320.462341 260.584442,322.469910 
	C260.784576,326.381042 263.861847,327.937256 268.500732,326.926910 
M299.030121,231.405716 
	C296.004150,234.336334 295.758209,237.548309 298.754791,240.458527 
	C301.280579,242.911560 304.576996,242.783066 306.499268,239.970581 
	C307.639771,238.301941 307.935150,235.154724 307.154694,233.277603 
	C305.867615,230.182037 302.858398,229.476334 299.030121,231.405716 
M217.284454,340.523438 
	C216.903870,336.717590 214.552750,334.871063 211.177902,336.185608 
	C209.688232,336.765900 208.498520,339.651672 208.367523,341.572296 
	C208.296173,342.618317 210.977753,344.957397 211.973801,344.734070 
	C213.875290,344.307556 215.459106,342.464600 217.284454,340.523438 
M379.153564,215.148315 
	C374.219391,215.215576 371.561005,218.087570 373.615387,221.411652 
	C374.405518,222.690109 376.396362,223.823181 377.889252,223.887817 
	C379.155762,223.942627 381.557434,222.393448 381.581940,221.502441 
	C381.636536,219.518112 380.518250,217.501495 379.153564,215.148315 
z"/>
<path fill="#F8F8F8" opacity="1.000000" stroke="none" 
	d="
M78.924728,373.861755 
	C78.979851,368.885254 78.783363,364.367615 79.132439,359.892517 
	C80.134949,347.040222 88.385254,337.257874 100.919571,333.690613 
	C102.023422,333.376465 103.108437,332.996094 104.719017,332.481262 
	C104.719017,318.589539 105.100769,304.626282 104.541267,290.700836 
	C104.299149,284.674805 101.231956,278.764648 100.973320,272.736420 
	C100.088654,252.116333 112.306503,234.696457 131.821671,228.017166 
	C135.055542,226.910324 137.108551,225.316498 138.537857,222.156937 
	C147.659409,201.993256 157.001801,181.929489 166.123672,161.765945 
	C166.857162,160.144592 166.978043,157.894714 166.538574,156.149719 
	C163.038681,142.252502 167.900864,128.870834 179.487900,121.117683 
	C191.121628,113.333252 205.724442,114.060310 217.278549,122.696640 
	C219.086151,124.047760 221.721207,124.909645 223.985489,124.934875 
	C243.146286,125.148346 262.310242,125.184555 281.471954,125.064857 
	C283.781677,125.050430 286.362000,124.246239 288.343567,123.034248 
	C300.324463,115.706413 314.903351,116.868073 324.860840,126.193512 
	C335.322449,135.991074 337.692383,150.712433 330.815735,163.183960 
	C327.725342,168.788696 328.766174,173.605423 333.908325,177.070709 
	C340.804962,181.718353 344.476746,188.410675 345.815613,194.991699 
	C349.487000,196.422974 352.687744,197.001266 354.851257,198.816101 
	C355.831635,199.638504 355.558960,204.026932 354.436371,204.840485 
	C352.284454,206.399994 349.119507,206.561630 346.374847,207.303253 
	C346.212250,206.877213 346.049652,206.451172 345.887054,206.025116 
	C344.609009,208.677658 343.549347,211.464523 342.014893,213.959351 
	C335.525970,224.509369 323.260193,228.941986 311.167725,225.577576 
	C309.074982,224.995346 306.554932,225.278839 304.383484,225.796661 
	C300.495758,226.723694 297.490204,224.022675 297.459839,219.595154 
	C297.445312,217.472870 297.027802,215.129318 296.051544,213.276566 
	C291.910828,205.418427 291.155457,197.508286 294.729828,189.268082 
	C297.157898,183.670532 294.547028,178.259171 290.197754,174.323776 
	C284.312042,168.998108 277.766815,169.117981 270.766998,169.190918 
	C255.604996,169.348923 240.440323,169.254990 225.276749,169.260635 
	C218.179199,169.263275 212.915329,173.612610 210.368011,179.019257 
	C200.939087,199.031998 192.414841,219.473709 183.763092,239.844482 
	C183.084747,241.441605 183.401276,244.138245 184.343933,245.641159 
	C192.908081,259.295380 194.475449,273.550140 188.767609,288.629608 
	C188.248703,290.000458 187.768280,291.493866 187.759857,292.933197 
	C187.682983,306.086700 187.714676,319.240845 187.714676,332.112823 
	C188.250748,332.627228 188.444519,332.980072 188.705215,333.039490 
	C205.287796,336.822388 212.583633,349.574768 212.628769,364.897949 
	C212.639572,368.563751 212.716705,372.229950 212.681030,375.895172 
	C212.618225,382.344788 210.815903,384.207397 204.322495,384.224060 
	C177.828033,384.292114 151.333405,384.300995 124.838844,384.327576 
	C112.841286,384.339630 100.843719,384.340271 88.846153,384.349304 
	C79.738602,384.356171 78.884720,383.497253 78.924728,373.861755 
M116.520706,345.101227 
	C113.526031,345.104736 110.529381,345.039612 107.537064,345.125427 
	C100.342087,345.331726 94.071312,349.672272 92.359222,356.631592 
	C91.165039,361.485718 91.235977,366.651093 90.738571,371.710266 
	C127.876488,371.710266 164.027405,371.710266 200.346542,371.710266 
	C200.346542,368.814606 200.428619,366.322540 200.332748,363.837372 
	C199.841034,351.090118 193.595871,345.082092 180.902237,345.084930 
	C159.772949,345.089630 138.643661,345.096039 116.520706,345.101227 
M178.917877,262.822052 
	C178.652588,262.035004 178.401505,261.242859 178.119904,260.461700 
	C171.790237,242.902679 153.761200,233.708511 136.396713,239.181229 
	C118.832199,244.716965 108.976952,263.224579 114.177994,280.906769 
	C119.155403,297.828674 137.267700,308.377747 154.090561,304.152893 
	C172.317001,299.575562 183.102707,282.082001 178.917877,262.822052 
M161.166290,201.678116 
	C157.603683,209.493561 154.041092,217.309006 150.729294,224.574249 
	C158.459076,227.398392 165.687119,230.039230 173.514084,232.898895 
	C180.958374,215.633377 188.653549,197.786011 195.895767,180.989136 
	C188.384079,177.855988 181.655899,175.049637 174.675034,172.137894 
	C170.464661,181.363266 165.983429,191.182114 161.166290,201.678116 
M140.914505,316.924042 
	C132.151352,315.885773 124.463684,312.237183 117.174294,306.505859 
	C117.174294,315.709625 117.174294,324.203003 117.174294,332.660339 
	C136.770874,332.660339 156.001572,332.660339 175.315460,332.660339 
	C175.315460,323.983124 175.315460,315.627960 175.315460,306.593018 
	C165.151062,314.694244 154.187836,318.223206 140.914505,316.924042 
M296.877045,132.107468 
	C295.643860,132.949066 294.269318,133.641953 293.201294,134.657288 
	C287.804779,139.787659 285.807434,146.026703 287.828278,153.254654 
	C289.800171,160.307632 294.605530,164.592178 301.744354,165.985443 
	C308.985809,167.398727 314.885101,164.798981 319.217682,158.972610 
	C323.915466,152.655167 323.686066,143.782425 318.961487,137.558655 
	C313.856140,130.833298 306.506866,128.861710 296.877045,132.107468 
M239.524384,157.080215 
	C251.610077,157.080215 263.695770,157.080215 275.896301,157.080215 
	C275.896301,150.255264 275.896301,143.929718 275.896301,137.578949 
	C260.239166,137.578949 244.203293,137.578949 228.510590,137.578949 
	C228.510590,144.102264 228.510590,150.335251 228.510590,157.079681 
	C231.632629,157.079681 235.083588,157.079681 239.524384,157.080215 
M206.448730,165.180054 
	C216.138718,159.159500 219.609848,149.487930 215.480591,140.014694 
	C211.431381,130.725189 201.674484,125.958054 192.059937,128.571579 
	C180.932953,131.596237 174.741989,143.133102 178.374130,154.075150 
	C182.002502,165.005859 193.908249,169.987701 206.448730,165.180054 
M320.972931,214.518845 
	C328.781281,212.698578 333.277374,208.140976 333.971802,201.342163 
	C334.630188,194.896088 331.537720,188.557495 325.428253,186.452042 
	C321.383545,185.058182 320.068787,182.561768 319.233276,179.048019 
	C318.976257,177.967163 318.501526,176.938080 318.108643,175.835144 
	C314.235260,176.861115 310.652435,177.810120 306.900787,178.803833 
	C307.294617,180.830154 307.836121,182.603928 307.936157,184.402267 
	C308.047089,186.396088 308.446320,188.828781 307.528503,190.352829 
	C300.284271,202.382248 306.119843,213.757828 320.972931,214.518845 
z"/>
<path fill="#F8F8F8" opacity="1.000000" stroke="none" 
	d="
M412.090698,288.591095 
	C413.906769,292.151520 416.558289,295.428650 416.699707,298.810791 
	C417.220612,311.266388 416.956177,323.756958 416.895203,336.233948 
	C416.856171,344.217651 412.926117,348.158234 404.902985,348.209564 
	C391.927094,348.292572 378.950104,348.301239 365.974121,348.237030 
	C358.372864,348.199402 354.360199,344.176514 354.296112,336.444794 
	C354.191315,323.801971 354.182922,311.157227 354.274628,298.514313 
	C354.328766,291.046600 358.311523,286.974335 365.625610,286.919983 
	C378.933929,286.821106 392.244141,286.828400 405.551941,286.956451 
	C407.630280,286.976471 409.700256,287.867645 412.090698,288.591095 
M366.400757,317.499908 
	C366.400757,323.605377 366.400757,329.710846 366.400757,335.678802 
	C379.595032,335.678802 392.143555,335.678802 404.627808,335.678802 
	C404.627808,323.355286 404.627808,311.424561 404.627808,299.283569 
	C391.842560,299.283569 379.314301,299.283569 366.398804,299.283569 
	C366.398804,305.239105 366.398804,310.870087 366.400757,317.499908 
z"/>
<path fill="#F9F9F8" opacity="1.000000" stroke="none" 
	d="
M339.761536,325.987976 
	C339.762787,330.149719 339.924652,333.822876 339.729736,337.476959 
	C339.386627,343.909851 335.260742,348.076141 328.857635,348.144409 
	C315.033417,348.291931 301.205811,348.298950 287.381378,348.169373 
	C281.209656,348.111542 277.014038,343.906586 276.952087,337.765717 
	C276.816010,324.274475 276.798187,310.780060 276.933716,297.288971 
	C276.995300,291.156586 281.206055,286.997009 287.419312,286.930481 
	C301.243561,286.782440 315.071014,286.785461 328.895752,286.899902 
	C335.555145,286.954987 339.657379,291.180267 339.756012,298.006226 
	C339.888336,307.165833 339.771393,316.329102 339.761536,325.987976 
M317.464294,336.077179 
	C320.737061,336.077179 324.009796,336.077179 327.357666,336.077179 
	C327.357666,323.424805 327.357666,311.357086 327.357666,299.290985 
	C314.443817,299.290985 301.873749,299.290985 289.261780,299.290985 
	C289.261780,311.679474 289.261780,323.737976 289.261780,336.077087 
	C298.539734,336.077087 307.506439,336.077087 317.464294,336.077179 
z"/>
<path fill="#F9F9F9" opacity="1.000000" stroke="none" 
	d="
M354.807770,149.999527 
	C354.802643,141.843323 354.731445,134.186279 354.810944,126.530815 
	C354.888184,119.093163 358.781860,115.147438 366.260437,115.093239 
	C379.242249,114.999161 392.225861,114.996895 405.207520,115.102264 
	C412.781128,115.163734 416.836945,119.349205 416.871796,126.945290 
	C416.929047,139.428223 416.947601,151.911926 416.876007,164.394669 
	C416.832397,172.003525 412.759552,176.021103 405.062622,176.068649 
	C392.246979,176.147842 379.430420,176.156204 366.614594,176.104813 
	C358.799500,176.073471 354.950500,172.219986 354.845947,164.480484 
	C354.783020,159.820801 354.817139,155.159805 354.807770,149.999527 
M366.856171,154.466644 
	C366.856171,157.555954 366.856171,160.645264 366.856171,163.624756 
	C379.907898,163.624756 392.271973,163.624756 404.492340,163.624756 
	C404.492340,151.373810 404.492340,139.494766 404.492340,127.679718 
	C391.761414,127.679718 379.407501,127.679718 366.855896,127.679718 
	C366.855896,136.539017 366.855896,145.008148 366.856171,154.466644 
z"/>
<path fill="#EEEEED" opacity="1.000000" stroke="none" 
	d="
M304.988953,247.884277 
	C308.834076,251.584167 307.777252,255.920044 306.899139,259.834351 
	C306.243469,262.757019 303.504761,263.819427 300.490936,262.612030 
	C297.389221,261.369385 295.967194,255.829315 297.631683,250.971680 
	C298.781128,247.617172 301.112823,246.206940 304.988953,247.884277 
z"/>
<path fill="#F0F0F0" opacity="1.000000" stroke="none" 
	d="
M386.281372,252.866394 
	C386.522095,256.791992 385.704712,259.886261 381.559448,259.944763 
	C377.315735,260.004669 376.029968,257.008484 376.140442,253.206512 
	C376.164520,252.379013 376.175201,251.549332 376.145355,250.722351 
	C376.015656,247.131302 377.232635,244.233719 381.166351,244.101746 
	C385.226929,243.965500 386.405823,246.864990 386.279846,250.473572 
	C386.256744,251.135239 386.279144,251.798477 386.281372,252.866394 
z"/>
<path fill="#F0F0F0" opacity="1.000000" stroke="none" 
	d="
M234.671021,336.111511 
	C235.538208,338.381287 236.917267,340.763916 236.310272,342.417511 
	C235.790573,343.833313 233.076584,344.664734 231.179092,345.278931 
	C229.830887,345.715332 227.894501,345.904266 226.808838,345.240967 
	C224.818848,344.025116 223.263458,342.097961 221.526855,340.467377 
	C223.181580,338.737701 224.557907,336.161469 226.564453,335.501587 
	C228.857498,334.747498 231.711166,335.698151 234.671021,336.111511 
z"/>
<path fill="#EEEEED" opacity="1.000000" stroke="none" 
	d="
M242.096115,340.051758 
	C244.183899,335.512634 251.876175,333.563416 255.525909,336.261810 
	C258.035614,338.117249 258.227661,341.929657 255.917709,344.037659 
	C252.228790,347.404053 244.003601,345.263947 242.096115,340.051758 
z"/>
<path fill="#EEEEED" opacity="1.000000" stroke="none" 
	d="
M341.270630,140.860199 
	C346.283783,141.759171 348.866516,144.648300 347.661072,147.968903 
	C346.421112,151.384674 343.622772,153.177338 340.227875,151.792938 
	C338.462097,151.072876 336.049530,148.255478 336.355042,146.955673 
	C336.885834,144.697281 339.298065,142.881073 341.270630,140.860199 
z"/>
<path fill="#EEEEED" opacity="1.000000" stroke="none" 
	d="
M376.689270,236.343109 
	C374.594360,232.205734 375.466187,229.109222 379.423187,227.467361 
	C382.498749,226.191223 385.437927,227.469238 386.240570,230.542801 
	C386.761261,232.536621 386.121918,235.619873 384.782135,237.138367 
	C382.470306,239.758575 379.400238,239.138062 376.689270,236.343109 
z"/>
<path fill="#EEEEED" opacity="1.000000" stroke="none" 
	d="
M378.296570,275.937561 
	C375.195282,273.227753 374.521301,270.021301 377.127655,267.464722 
	C378.523743,266.095306 382.358795,265.191315 383.543579,266.099304 
	C385.337128,267.473846 386.995544,270.888306 386.529755,272.940887 
	C385.684570,276.665192 382.409332,277.866791 378.296570,275.937561 
z"/>
<path fill="#F0F0F0" opacity="1.000000" stroke="none" 
	d="
M371.383545,206.921295 
	C370.935181,209.470032 370.839142,212.120911 369.496185,213.733276 
	C368.623535,214.781036 365.442261,215.111526 364.179413,214.331680 
	C362.501160,213.295349 360.849182,210.908325 360.750519,209.019897 
	C360.665558,207.393677 362.719330,204.296951 363.922516,204.249283 
	C366.316071,204.154510 368.774963,205.709457 371.383545,206.921295 
z"/>
<path fill="#EEEEED" opacity="1.000000" stroke="none" 
	d="
M307.276855,271.012604 
	C308.543365,276.973236 305.707367,280.902405 301.341888,279.377625 
	C299.530060,278.744781 297.383728,276.512207 297.112823,274.743256 
	C296.841309,272.970184 298.231140,270.242584 299.762482,269.050781 
	C302.331268,267.051636 305.060577,268.167084 307.276855,271.012604 
z"/>
<path fill="#F0F0F0" opacity="1.000000" stroke="none" 
	d="
M268.158447,327.044067 
	C263.861847,327.937256 260.784576,326.381042 260.584442,322.469910 
	C260.481689,320.462341 262.683807,316.940674 264.358795,316.594788 
	C266.410950,316.171021 269.819489,317.743042 271.173126,319.551422 
	C273.354156,322.465149 271.376495,325.153381 268.158447,327.044067 
z"/>
<path fill="#EEEEED" opacity="1.000000" stroke="none" 
	d="
M299.339661,231.203979 
	C302.858398,229.476334 305.867615,230.182037 307.154694,233.277603 
	C307.935150,235.154724 307.639771,238.301941 306.499268,239.970581 
	C304.576996,242.783066 301.280579,242.911560 298.754791,240.458527 
	C295.758209,237.548309 296.004150,234.336334 299.339661,231.203979 
z"/>
<path fill="#E6E6E6" opacity="1.000000" stroke="none" 
	d="
M345.856201,227.955490 
	C345.813354,228.600952 345.490204,229.627090 345.770630,229.833572 
	C348.912781,232.147232 349.772919,235.074722 346.721741,237.606308 
	C345.529419,238.595551 341.860016,238.430511 340.755127,237.338272 
	C337.852966,234.469315 339.316467,231.674683 342.690125,229.121338 
	C343.872314,228.350464 344.864227,228.152969 345.856201,227.955490 
z"/>
<path fill="#E6E6E6" opacity="1.000000" stroke="none" 
	d="
M345.672028,250.986023 
	C346.007233,251.732208 346.153503,252.688568 346.709839,253.188828 
	C349.354797,255.567062 349.657562,258.394257 346.927612,260.341949 
	C345.561432,261.316650 342.147919,261.219025 340.878174,260.154236 
	C338.302521,257.994293 338.902618,255.173553 341.673798,253.035599 
	C342.075073,252.726013 342.246887,252.119095 342.605652,251.311218 
	C343.681641,250.977127 344.676849,250.981583 345.672028,250.986023 
z"/>
<path fill="#EEEEED" opacity="1.000000" stroke="none" 
	d="
M217.229614,340.866516 
	C215.459106,342.464600 213.875290,344.307556 211.973801,344.734070 
	C210.977753,344.957397 208.296173,342.618317 208.367523,341.572296 
	C208.498520,339.651672 209.688232,336.765900 211.177902,336.185608 
	C214.552750,334.871063 216.903870,336.717590 217.229614,340.866516 
z"/>
<path fill="#F0F0F0" opacity="1.000000" stroke="none" 
	d="
M346.197388,227.914093 
	C344.864227,228.152969 343.872314,228.350464 342.630432,228.733383 
	C341.775208,228.365112 340.678284,227.833588 340.652161,227.253738 
	C340.553436,225.065506 340.187378,222.500900 341.176666,220.812881 
	C341.685272,219.945145 345.427765,219.843353 346.682251,220.776138 
	C349.331207,222.745819 349.120178,225.543808 346.197388,227.914093 
z"/>
<path fill="#E6E6E6" opacity="1.000000" stroke="none" 
	d="
M379.515747,215.323181 
	C380.518250,217.501495 381.636536,219.518112 381.581940,221.502441 
	C381.557434,222.393448 379.155762,223.942627 377.889252,223.887817 
	C376.396362,223.823181 374.405518,222.690109 373.615387,221.411652 
	C371.561005,218.087570 374.219391,215.215576 379.515747,215.323181 
z"/>
<path fill="#EEEEED" opacity="1.000000" stroke="none" 
	d="
M345.917358,250.723114 
	C344.676849,250.981583 343.681641,250.977127 342.314026,250.997467 
	C338.619110,248.944580 338.655487,246.006897 341.224182,243.893021 
	C342.403656,242.922379 345.932617,243.178299 347.166656,244.269012 
	C349.218262,246.082397 349.664246,248.905075 345.917358,250.723114 
z"/>
<path fill="#040404" opacity="1.000000" stroke="none" 
	d="
M117.017540,345.101501 
	C138.643661,345.096039 159.772949,345.089630 180.902237,345.084930 
	C193.595871,345.082092 199.841034,351.090118 200.332748,363.837372 
	C200.428619,366.322540 200.346542,368.814606 200.346542,371.710266 
	C164.027405,371.710266 127.876488,371.710266 90.738571,371.710266 
	C91.235977,366.651093 91.165039,361.485718 92.359222,356.631592 
	C94.071312,349.672272 100.342087,345.331726 107.537064,345.125427 
	C110.529381,345.039612 113.526031,345.104736 117.017540,345.101501 
z"/>
<path fill="#090909" opacity="1.000000" stroke="none" 
	d="
M178.991821,263.233582 
	C183.102707,282.082001 172.317001,299.575562 154.090561,304.152893 
	C137.267700,308.377747 119.155403,297.828674 114.177994,280.906769 
	C108.976952,263.224579 118.832199,244.716965 136.396713,239.181229 
	C153.761200,233.708511 171.790237,242.902679 178.119904,260.461700 
	C178.401505,261.242859 178.652588,262.035004 178.991821,263.233582 
M169.350800,273.977203 
	C169.943207,259.794769 161.076645,248.944183 148.160767,248.045563 
	C135.526962,247.166565 124.952797,256.108643 123.447563,268.944366 
	C122.025703,281.069153 130.814224,292.430695 143.042221,294.275696 
	C155.716705,296.188141 166.556091,288.117462 169.350800,273.977203 
z"/>
<path fill="#060606" opacity="1.000000" stroke="none" 
	d="
M161.334244,201.339539 
	C165.983429,191.182114 170.464661,181.363266 174.675034,172.137894 
	C181.655899,175.049637 188.384079,177.855988 195.895767,180.989136 
	C188.653549,197.786011 180.958374,215.633377 173.514084,232.898895 
	C165.687119,230.039230 158.459076,227.398392 150.729294,224.574249 
	C154.041092,217.309006 157.603683,209.493561 161.334244,201.339539 
z"/>
<path fill="#070707" opacity="1.000000" stroke="none" 
	d="
M141.371765,316.955231 
	C154.187836,318.223206 165.151062,314.694244 175.315460,306.593018 
	C175.315460,315.627960 175.315460,323.983124 175.315460,332.660339 
	C156.001572,332.660339 136.770874,332.660339 117.174294,332.660339 
	C117.174294,324.203003 117.174294,315.709625 117.174294,306.505859 
	C124.463684,312.237183 132.151352,315.885773 141.371765,316.955231 
z"/>
<path fill="#050505" opacity="1.000000" stroke="none" 
	d="
M297.231018,131.965759 
	C306.506866,128.861710 313.856140,130.833298 318.961487,137.558655 
	C323.686066,143.782425 323.915466,152.655167 319.217682,158.972610 
	C314.885101,164.798981 308.985809,167.398727 301.744354,165.985443 
	C294.605530,164.592178 289.800171,160.307632 287.828278,153.254654 
	C285.807434,146.026703 287.804779,139.787659 293.201294,134.657288 
	C294.269318,133.641953 295.643860,132.949066 297.231018,131.965759 
z"/>
<path fill="#080808" opacity="1.000000" stroke="none" 
	d="
M239.029465,157.079956 
	C235.083588,157.079681 231.632629,157.079681 228.510590,157.079681 
	C228.510590,150.335251 228.510590,144.102264 228.510590,137.578949 
	C244.203293,137.578949 260.239166,137.578949 275.896301,137.578949 
	C275.896301,143.929718 275.896301,150.255264 275.896301,157.080215 
	C263.695770,157.080215 251.610077,157.080215 239.029465,157.079956 
z"/>
<path fill="#0B0B0B" opacity="1.000000" stroke="none" 
	d="
M206.108353,165.358948 
	C193.908249,169.987701 182.002502,165.005859 178.374130,154.075150 
	C174.741989,143.133102 180.932953,131.596237 192.059937,128.571579 
	C201.674484,125.958054 211.431381,130.725189 215.480591,140.014694 
	C219.609848,149.487930 216.138718,159.159500 206.108353,165.358948 
M203.199036,138.105621 
	C196.685150,135.232239 191.151749,136.431961 187.782990,141.447968 
	C184.673874,146.077438 185.406616,152.225143 189.514267,155.973053 
	C193.585007,159.687286 199.787994,159.940430 204.197845,156.572281 
	C210.105392,152.060242 209.943924,144.417999 203.199036,138.105621 
z"/>
<path fill="#070707" opacity="1.000000" stroke="none" 
	d="
M320.581909,214.578583 
	C306.119843,213.757828 300.284271,202.382248 307.528503,190.352829 
	C308.446320,188.828781 308.047089,186.396088 307.936157,184.402267 
	C307.836121,182.603928 307.294617,180.830154 306.900787,178.803833 
	C310.652435,177.810120 314.235260,176.861115 318.108643,175.835144 
	C318.501526,176.938080 318.976257,177.967163 319.233276,179.048019 
	C320.068787,182.561768 321.383545,185.058182 325.428253,186.452042 
	C331.537720,188.557495 334.630188,194.896088 333.971802,201.342163 
	C333.277374,208.140976 328.781281,212.698578 320.581909,214.578583 
z"/>
<path fill="#060606" opacity="1.000000" stroke="none" 
	d="
M366.399780,317.000488 
	C366.398804,310.870087 366.398804,305.239105 366.398804,299.283569 
	C379.314301,299.283569 391.842560,299.283569 404.627808,299.283569 
	C404.627808,311.424561 404.627808,323.355286 404.627808,335.678802 
	C392.143555,335.678802 379.595032,335.678802 366.400757,335.678802 
	C366.400757,329.710846 366.400757,323.605377 366.399780,317.000488 
z"/>
<path fill="#050505" opacity="1.000000" stroke="none" 
	d="
M316.968689,336.077148 
	C307.506439,336.077087 298.539734,336.077087 289.261780,336.077087 
	C289.261780,323.737976 289.261780,311.679474 289.261780,299.290985 
	C301.873749,299.290985 314.443817,299.290985 327.357666,299.290985 
	C327.357666,311.357086 327.357666,323.424805 327.357666,336.077179 
	C324.009796,336.077179 320.737061,336.077179 316.968689,336.077148 
z"/>
<path fill="#060606" opacity="1.000000" stroke="none" 
	d="
M366.856018,153.971954 
	C366.855896,145.008148 366.855896,136.539017 366.855896,127.679718 
	C379.407501,127.679718 391.761414,127.679718 404.492340,127.679718 
	C404.492340,139.494766 404.492340,151.373810 404.492340,163.624756 
	C392.271973,163.624756 379.907898,163.624756 366.856171,163.624756 
	C366.856171,160.645264 366.856171,157.555954 366.856018,153.971954 
z"/>
<path fill="#F7F7F6" opacity="1.000000" stroke="none" 
	d="
M169.294144,274.374390 
	C166.556091,288.117462 155.716705,296.188141 143.042221,294.275696 
	C130.814224,292.430695 122.025703,281.069153 123.447563,268.944366 
	C124.952797,256.108643 135.526962,247.166565 148.160767,248.045563 
	C161.076645,248.944183 169.943207,259.794769 169.294144,274.374390 
M138.001801,278.436829 
	C143.075500,284.953552 154.561813,283.259369 157.053238,274.265686 
	C158.402222,269.396027 156.335693,264.375732 152.007385,261.806244 
	C147.585968,259.181488 142.382874,259.780487 138.696457,263.338593 
	C134.646744,267.247406 134.268661,271.881683 138.001801,278.436829 
z"/>
<path fill="#F5F5F5" opacity="1.000000" stroke="none" 
	d="
M203.507935,138.322189 
	C209.943924,144.417999 210.105392,152.060242 204.197845,156.572281 
	C199.787994,159.940430 193.585007,159.687286 189.514267,155.973053 
	C185.406616,152.225143 184.673874,146.077438 187.782990,141.447968 
	C191.151749,136.431961 196.685150,135.232239 203.507935,138.322189 
z"/>
<path fill="#090909" opacity="1.000000" stroke="none" 
	d="
M137.757309,278.141541 
	C134.268661,271.881683 134.646744,267.247406 138.696457,263.338593 
	C142.382874,259.780487 147.585968,259.181488 152.007385,261.806244 
	C156.335693,264.375732 158.402222,269.396027 157.053238,274.265686 
	C154.561813,283.259369 143.075500,284.953552 137.757309,278.141541 
z"/>
</svg>