<svg version="1.1" id="Layer_1" xmlns="http://www.w3.org/2000/svg" xmlns:xlink="http://www.w3.org/1999/xlink" x="0px" y="0px"
	 width="100%" viewBox="0 0 512 512" enable-background="new 0 0 512 512" xml:space="preserve">
<path fill="#000000" opacity="1.000000" stroke="none" 
	d="
M339.000000,513.000000 
	C226.027451,513.000000 113.554893,513.000000 1.041169,513.000000 
	C1.041169,342.402435 1.041169,171.804840 1.041169,1.103623 
	C171.555893,1.103623 342.111877,1.103623 512.833923,1.103623 
	C512.833923,171.666534 512.833923,342.333252 512.833923,513.000000 
	C455.138153,513.000000 397.319061,513.000000 339.000000,513.000000 
M367.033844,116.355347 
	C364.369843,116.295853 361.705811,116.184998 359.041809,116.184372 
	C290.886566,116.168335 222.731308,116.160027 154.576065,116.159531 
	C133.099121,116.159370 119.940704,129.173904 119.898865,150.615250 
	C119.841309,180.110138 119.878914,209.605255 119.934250,239.100174 
	C119.939529,241.917007 120.023293,244.812866 120.668991,247.529831 
	C121.529755,251.151733 120.925049,253.755096 118.582855,256.937195 
	C116.385178,259.922974 115.132507,264.276367 115.073792,268.053009 
	C114.747421,289.044373 114.777534,310.044525 114.952682,331.039429 
	C115.078476,346.117859 127.260544,358.172119 142.355301,358.602905 
	C144.296555,358.658325 146.240738,358.610504 148.793091,358.610504 
	C148.793091,363.308136 148.679504,367.442017 148.817307,371.567505 
	C149.083603,379.539093 153.454910,383.827484 161.401001,383.903839 
	C169.398849,383.980743 177.398773,383.974945 185.396545,383.889709 
	C193.583145,383.802429 197.861282,379.430878 198.006470,371.103821 
	C198.077911,367.005981 198.018845,362.905853 198.018845,358.741180 
	C239.151566,358.741180 279.569031,358.741180 320.634979,358.741180 
	C320.634979,363.304504 320.540100,367.599243 320.655518,371.888306 
	C320.868652,379.806732 324.945312,383.864380 332.802338,383.931030 
	C341.133545,384.001678 349.466705,383.987366 357.797699,383.894135 
	C365.513000,383.807831 369.847565,379.559692 370.086090,371.864960 
	C370.218964,367.577850 370.109955,363.283234 370.109955,358.710815 
	C372.275208,358.551544 373.892212,358.423828 375.510468,358.314972 
	C391.423553,357.244232 402.306122,345.697845 402.320618,329.818298 
	C402.338562,310.154938 402.433105,290.490448 402.227570,270.829254 
	C402.190460,267.283813 402.033813,262.609283 399.908142,260.434174 
	C394.194824,254.587967 394.058197,248.196243 395.485901,241.096008 
	C395.582916,240.613525 395.528168,240.098724 395.528748,239.598923 
	C395.565094,209.270782 395.702484,178.942261 395.594452,148.614624 
	C395.533997,131.635834 384.725769,119.317444 367.033844,116.355347 
z"/>
<path fill="#F5F5F5" opacity="1.000000" stroke="none" 
	d="
M367.477234,116.418289 
	C384.725769,119.317444 395.533997,131.635834 395.594452,148.614624 
	C395.702484,178.942261 395.565094,209.270782 395.528748,239.598923 
	C395.528168,240.098724 395.582916,240.613525 395.485901,241.096008 
	C394.058197,248.196243 394.194824,254.587967 399.908142,260.434174 
	C402.033813,262.609283 402.190460,267.283813 402.227570,270.829254 
	C402.433105,290.490448 402.338562,310.154938 402.320618,329.818298 
	C402.306122,345.697845 391.423553,357.244232 375.510468,358.314972 
	C373.892212,358.423828 372.275208,358.551544 370.109955,358.710815 
	C370.109955,363.283234 370.218964,367.577850 370.086090,371.864960 
	C369.847565,379.559692 365.513000,383.807831 357.797699,383.894135 
	C349.466705,383.987366 341.133545,384.001678 332.802338,383.931030 
	C324.945312,383.864380 320.868652,379.806732 320.655518,371.888306 
	C320.540100,367.599243 320.634979,363.304504 320.634979,358.741180 
	C279.569031,358.741180 239.151566,358.741180 198.018845,358.741180 
	C198.018845,362.905853 198.077911,367.005981 198.006470,371.103821 
	C197.861282,379.430878 193.583145,383.802429 185.396545,383.889709 
	C177.398773,383.974945 169.398849,383.980743 161.401001,383.903839 
	C153.454910,383.827484 149.083603,379.539093 148.817307,371.567505 
	C148.679504,367.442017 148.793091,363.308136 148.793091,358.610504 
	C146.240738,358.610504 144.296555,358.658325 142.355301,358.602905 
	C127.260544,358.172119 115.078476,346.117859 114.952682,331.039429 
	C114.777534,310.044525 114.747421,289.044373 115.073792,268.053009 
	C115.132507,264.276367 116.385178,259.922974 118.582855,256.937195 
	C120.925049,253.755096 121.529755,251.151733 120.668991,247.529831 
	C120.023293,244.812866 119.939529,241.917007 119.934250,239.100174 
	C119.878914,209.605255 119.841309,180.110138 119.898865,150.615250 
	C119.940704,129.173904 133.099121,116.159370 154.576065,116.159531 
	C222.731308,116.160027 290.886566,116.168335 359.041809,116.184372 
	C361.705811,116.184998 364.369843,116.295853 367.477234,116.418289 
M270.499969,248.872864 
	C305.666260,248.873734 340.832581,248.875977 375.998871,248.874390 
	C384.027924,248.874023 384.130768,248.814240 384.129395,240.882217 
	C384.124115,210.382385 384.117004,179.882477 384.044495,149.382751 
	C384.012115,135.762619 375.840729,127.676224 362.204712,127.678062 
	C292.871704,127.687393 223.538712,127.712273 154.205719,127.747658 
	C139.335251,127.755249 131.315247,135.691910 131.285889,150.531082 
	C131.228851,179.364166 131.243073,208.197388 131.255005,237.030563 
	C131.255905,239.190964 131.433228,241.354385 131.599533,243.510941 
	C131.903885,247.457474 133.662781,248.957916 138.001038,248.940750 
	C181.833405,248.767273 225.666824,248.857422 270.499969,248.872864 
M126.317619,297.499817 
	C126.329132,308.160889 126.297180,318.822235 126.364166,329.482971 
	C126.433296,340.485352 132.743927,347.091705 143.635162,347.097168 
	C220.429565,347.135651 297.224060,347.109467 374.018433,347.026642 
	C384.158447,347.015686 390.925781,340.112762 390.964996,330.071136 
	C391.038483,311.247559 391.046753,292.423584 391.015259,273.599884 
	C390.999634,264.260193 386.974152,260.292877 377.534088,260.292786 
	C297.574585,260.292023 217.615051,260.310791 137.655533,260.338715 
	C129.765137,260.341492 126.353622,263.685638 126.299362,271.512573 
	C126.241623,279.841187 126.307343,288.170685 126.317619,297.499817 
M340.578583,358.453064 
	C337.792877,358.453064 335.007202,358.453064 332.182739,358.453064 
	C332.182739,363.245209 332.182739,367.496063 332.182739,372.405426 
	C340.412354,372.405426 348.330383,372.499634 356.239685,372.278748 
	C357.163666,372.252960 358.719604,370.549011 358.813446,369.516754 
	C359.135345,365.975037 358.936981,362.385986 358.936981,358.448242 
	C352.792511,358.448242 347.175873,358.448242 340.578583,358.453064 
M169.536026,372.462158 
	C174.014282,372.454590 178.503815,372.619385 182.963547,372.328125 
	C184.204666,372.247070 186.286530,370.916931 186.387405,369.986847 
	C186.786087,366.310822 186.551071,362.566040 186.551071,358.825134 
	C177.401367,358.825134 168.860764,358.825134 159.980316,358.825134 
	C159.980316,360.737549 159.951096,362.366272 159.985107,363.993683 
	C160.188934,373.743439 159.104050,372.362457 169.536026,372.462158 
z"/>
<path fill="#020202" opacity="1.000000" stroke="none" 
	d="
M269.999939,248.873199 
	C225.666824,248.857422 181.833405,248.767273 138.001038,248.940750 
	C133.662781,248.957916 131.903885,247.457474 131.599533,243.510941 
	C131.433228,241.354385 131.255905,239.190964 131.255005,237.030563 
	C131.243073,208.197388 131.228851,179.364166 131.285889,150.531082 
	C131.315247,135.691910 139.335251,127.755249 154.205719,127.747658 
	C223.538712,127.712273 292.871704,127.687393 362.204712,127.678062 
	C375.840729,127.676224 384.012115,135.762619 384.044495,149.382751 
	C384.117004,179.882477 384.124115,210.382385 384.129395,240.882217 
	C384.130768,248.814240 384.027924,248.874023 375.998871,248.874390 
	C340.832581,248.875977 305.666260,248.873734 269.999939,248.873199 
M245.499969,235.879166 
	C269.660614,235.871490 293.821289,235.868149 317.981934,235.853287 
	C324.623383,235.849197 325.701996,234.865875 326.013824,228.103729 
	C326.297028,221.962021 326.060272,216.256287 322.496704,210.449600 
	C319.294556,205.231934 318.863068,198.393829 316.417114,192.605286 
	C314.656586,188.438751 312.212158,184.160797 308.960968,181.122177 
	C304.537506,176.987946 299.020325,174.034866 294.050629,170.466064 
	C292.897919,169.638290 291.697479,168.529175 291.146484,167.274063 
	C289.203857,162.848892 285.797089,160.420059 281.188660,159.972397 
	C276.094727,159.477585 270.951019,159.511261 265.833252,159.235535 
	C264.293427,159.152573 262.551453,159.205856 261.270599,158.514206 
	C252.452026,153.752350 239.659622,156.219986 233.069031,163.945938 
	C232.149033,165.024414 230.491592,165.858383 229.069870,166.059830 
	C221.685791,167.106140 215.483307,170.501648 211.951721,176.880386 
	C209.295959,181.677231 205.563248,185.519516 202.725784,189.928177 
	C195.246170,201.549484 191.060165,214.588272 191.382584,228.642487 
	C191.524368,234.823105 193.028992,235.881317 199.511185,235.885941 
	C214.507446,235.896637 229.503708,235.882095 245.499969,235.879166 
z"/>
<path fill="#060606" opacity="1.000000" stroke="none" 
	d="
M126.318390,296.999817 
	C126.307343,288.170685 126.241623,279.841187 126.299362,271.512573 
	C126.353622,263.685638 129.765137,260.341492 137.655533,260.338715 
	C217.615051,260.310791 297.574585,260.292023 377.534088,260.292786 
	C386.974152,260.292877 390.999634,264.260193 391.015259,273.599884 
	C391.046753,292.423584 391.038483,311.247559 390.964996,330.071136 
	C390.925781,340.112762 384.158447,347.015686 374.018433,347.026642 
	C297.224060,347.109467 220.429565,347.135651 143.635162,347.097168 
	C132.743927,347.091705 126.433296,340.485352 126.364166,329.482971 
	C126.297180,318.822235 126.329132,308.160889 126.318390,296.999817 
M311.727264,295.455078 
	C311.383514,297.415222 310.894836,299.362457 310.719116,301.337524 
	C309.396729,316.202118 315.614532,327.269623 328.388702,334.429321 
	C340.812531,341.392609 353.205688,340.280426 364.423096,331.711487 
	C376.053955,322.826660 380.598267,310.868317 377.180573,296.398346 
	C373.652618,281.461700 361.007874,271.042725 345.780579,270.208527 
	C330.893341,269.392975 317.517792,279.040436 311.727264,295.455078 
M155.531464,319.711761 
	C152.369278,319.739380 149.005463,319.117981 146.113861,320.016479 
	C144.093689,320.644165 141.450790,323.321777 141.408066,325.138397 
	C141.363831,327.018524 143.964478,329.134033 145.739365,330.792023 
	C146.380585,331.390961 147.981781,330.997192 149.144928,330.997467 
	C184.767639,331.006104 220.390350,331.010406 256.013062,330.997894 
	C257.334076,330.997406 259.139984,331.328674 259.877319,330.623871 
	C261.522491,329.051147 263.735168,326.869324 263.649872,325.031616 
	C263.566620,323.238831 261.131409,321.256927 259.301666,319.960968 
	C258.284790,319.240723 256.395660,319.713928 254.899673,319.713623 
	C222.106796,319.707458 189.313934,319.710266 155.531464,319.711761 
M217.046768,285.591064 
	C213.452103,273.936157 202.378479,268.479156 192.146500,273.320496 
	C183.765991,277.285767 179.716095,286.799316 182.708633,295.490845 
	C185.670090,304.092163 194.528458,309.159210 203.201370,307.212769 
	C213.024887,305.008118 218.427948,296.950317 217.046768,285.591064 
M256.092865,278.489075 
	C250.754501,272.286407 244.052704,270.223053 236.350037,272.779480 
	C229.039703,275.205688 224.833237,280.649780 224.240494,288.332703 
	C223.664810,295.794800 226.961609,301.555481 233.408356,305.346863 
	C240.377457,309.445526 249.179062,308.156403 254.972137,302.357422 
	C261.149292,296.173981 261.736267,287.661774 256.092865,278.489075 
M168.617004,275.790039 
	C159.932724,269.759338 150.398666,270.740448 144.161102,278.306702 
	C138.239990,285.489075 138.918777,295.805695 145.732330,302.187439 
	C152.658554,308.674713 162.595795,308.606720 169.579285,302.024323 
	C176.844589,295.176300 176.675690,284.639709 168.617004,275.790039 
z"/>
<path fill="#0C0C0C" opacity="1.000000" stroke="none" 
	d="
M341.068909,358.450653 
	C347.175873,358.448242 352.792511,358.448242 358.936981,358.448242 
	C358.936981,362.385986 359.135345,365.975037 358.813446,369.516754 
	C358.719604,370.549011 357.163666,372.252960 356.239685,372.278748 
	C348.330383,372.499634 340.412354,372.405426 332.182739,372.405426 
	C332.182739,367.496063 332.182739,363.245209 332.182739,358.453064 
	C335.007202,358.453064 337.792877,358.453064 341.068909,358.450653 
z"/>
<path fill="#060606" opacity="1.000000" stroke="none" 
	d="
M169.042252,372.464081 
	C159.104050,372.362457 160.188934,373.743439 159.985107,363.993683 
	C159.951096,362.366272 159.980316,360.737549 159.980316,358.825134 
	C168.860764,358.825134 177.401367,358.825134 186.551071,358.825134 
	C186.551071,362.566040 186.786087,366.310822 186.387405,369.986847 
	C186.286530,370.916931 184.204666,372.247070 182.963547,372.328125 
	C178.503815,372.619385 174.014282,372.454590 169.042252,372.464081 
z"/>
<path fill="#FBFBFB" opacity="1.000000" stroke="none" 
	d="
M244.999969,235.878479 
	C229.503708,235.882095 214.507446,235.896637 199.511185,235.885941 
	C193.028992,235.881317 191.524368,234.823105 191.382584,228.642487 
	C191.060165,214.588272 195.246170,201.549484 202.725784,189.928177 
	C205.563248,185.519516 209.295959,181.677231 211.951721,176.880386 
	C215.483307,170.501648 221.685791,167.106140 229.069870,166.059830 
	C230.491592,165.858383 232.149033,165.024414 233.069031,163.945938 
	C239.659622,156.219986 252.452026,153.752350 261.270599,158.514206 
	C262.551453,159.205856 264.293427,159.152573 265.833252,159.235535 
	C270.951019,159.511261 276.094727,159.477585 281.188660,159.972397 
	C285.797089,160.420059 289.203857,162.848892 291.146484,167.274063 
	C291.697479,168.529175 292.897919,169.638290 294.050629,170.466064 
	C299.020325,174.034866 304.537506,176.987946 308.960968,181.122177 
	C312.212158,184.160797 314.656586,188.438751 316.417114,192.605286 
	C318.863068,198.393829 319.294556,205.231934 322.496704,210.449600 
	C326.060272,216.256287 326.297028,221.962021 326.013824,228.103729 
	C325.701996,234.865875 324.623383,235.849197 317.981934,235.853287 
	C293.821289,235.868149 269.660614,235.871490 244.999969,235.878479 
M282.717804,180.649216 
	C278.068878,179.533035 273.455872,178.197845 268.750488,177.425674 
	C267.212219,177.173233 264.681274,177.868210 263.892181,179.015610 
	C260.011902,184.657867 256.564911,190.598099 252.449142,197.269089 
	C255.384171,197.437988 256.997101,197.557037 258.612244,197.618668 
	C262.933746,197.783615 267.269928,197.757263 271.575104,198.112030 
	C278.489716,198.681824 279.309784,200.396759 275.696014,206.081406 
	C274.714600,207.625183 273.404602,209.061844 272.856842,210.746460 
	C272.437744,212.035385 272.454498,214.373566 273.223419,214.924347 
	C274.323181,215.712143 276.405975,215.699203 277.845551,215.273178 
	C279.168365,214.881714 280.186401,213.479813 281.354309,212.542511 
	C290.152527,205.481430 288.378906,204.580795 296.119934,213.697311 
	C298.400146,216.382721 300.800049,218.966507 303.381439,221.861969 
	C308.307892,212.003708 296.519867,188.994980 282.717804,180.649216 
z"/>
<path fill="#F6F6F6" opacity="1.000000" stroke="none" 
	d="
M311.806580,295.055573 
	C317.517792,279.040436 330.893341,269.392975 345.780579,270.208527 
	C361.007874,271.042725 373.652618,281.461700 377.180573,296.398346 
	C380.598267,310.868317 376.053955,322.826660 364.423096,331.711487 
	C353.205688,340.280426 340.812531,341.392609 328.388702,334.429321 
	C315.614532,327.269623 309.396729,316.202118 310.719116,301.337524 
	C310.894836,299.362457 311.383514,297.415222 311.806580,295.055573 
M356.840759,323.524139 
	C366.410492,316.215576 369.517059,305.604187 365.118347,295.249634 
	C361.533875,286.811707 353.200745,281.342285 346.311188,282.310669 
	C347.399994,284.047821 349.499115,285.927704 349.688416,287.983490 
	C350.190430,293.434723 350.315247,299.019196 349.624268,304.427277 
	C349.388702,306.270844 346.417847,308.793518 344.433167,309.062775 
	C342.816528,309.282135 339.244385,306.618011 339.231262,305.207489 
	C339.159851,297.524719 336.637054,289.456543 341.725098,282.288055 
	C334.116394,282.121735 326.586212,287.793915 323.337860,296.046906 
	C319.824219,304.973877 322.263428,315.327942 329.369873,321.652466 
	C336.984497,328.429260 346.301147,329.224579 356.840759,323.524139 
z"/>
<path fill="#F8F8F8" opacity="1.000000" stroke="none" 
	d="
M156.026260,319.711578 
	C189.313934,319.710266 222.106796,319.707458 254.899673,319.713623 
	C256.395660,319.713928 258.284790,319.240723 259.301666,319.960968 
	C261.131409,321.256927 263.566620,323.238831 263.649872,325.031616 
	C263.735168,326.869324 261.522491,329.051147 259.877319,330.623871 
	C259.139984,331.328674 257.334076,330.997406 256.013062,330.997894 
	C220.390350,331.010406 184.767639,331.006104 149.144928,330.997467 
	C147.981781,330.997192 146.380585,331.390961 145.739365,330.792023 
	C143.964478,329.134033 141.363831,327.018524 141.408066,325.138397 
	C141.450790,323.321777 144.093689,320.644165 146.113861,320.016479 
	C149.005463,319.117981 152.369278,319.739380 156.026260,319.711578 
z"/>
<path fill="#F5F5F5" opacity="1.000000" stroke="none" 
	d="
M217.108673,285.985535 
	C218.427948,296.950317 213.024887,305.008118 203.201370,307.212769 
	C194.528458,309.159210 185.670090,304.092163 182.708633,295.490845 
	C179.716095,286.799316 183.765991,277.285767 192.146500,273.320496 
	C202.378479,268.479156 213.452103,273.936157 217.108673,285.985535 
M202.719910,295.598389 
	C207.165939,291.917694 207.903824,286.758423 203.758270,284.577423 
	C201.582581,283.432770 197.655579,283.414612 195.714035,284.696747 
	C194.043350,285.800018 193.054657,289.698700 193.564178,291.954895 
	C194.479752,296.009094 198.057495,296.877869 202.719910,295.598389 
z"/>
<path fill="#F6F6F6" opacity="1.000000" stroke="none" 
	d="
M256.336121,278.768921 
	C261.736267,287.661774 261.149292,296.173981 254.972137,302.357422 
	C249.179062,308.156403 240.377457,309.445526 233.408356,305.346863 
	C226.961609,301.555481 223.664810,295.794800 224.240494,288.332703 
	C224.833237,280.649780 229.039703,275.205688 236.350037,272.779480 
	C244.052704,270.223053 250.754501,272.286407 256.336121,278.768921 
M235.592819,288.104553 
	C234.920151,292.656525 236.830200,295.494568 241.357254,296.253357 
	C244.991760,296.862549 248.432892,294.260345 248.836914,290.695923 
	C249.272812,286.850311 247.363953,284.236267 243.767563,283.272400 
	C240.096573,282.288544 237.360397,283.874115 235.592819,288.104553 
z"/>
<path fill="#F7F7F6" opacity="1.000000" stroke="none" 
	d="
M168.891754,276.032471 
	C176.675690,284.639709 176.844589,295.176300 169.579285,302.024323 
	C162.595795,308.606720 152.658554,308.674713 145.732330,302.187439 
	C138.918777,295.805695 138.239990,285.489075 144.161102,278.306702 
	C150.398666,270.740448 159.932724,269.759338 168.891754,276.032471 
M163.634445,291.004089 
	C163.503479,284.786896 159.134918,281.080261 154.860504,283.938293 
	C153.028580,285.163177 151.338730,288.160248 151.445053,290.257812 
	C151.539429,292.119507 153.873749,294.644287 155.815323,295.463074 
	C159.160751,296.873871 161.766327,294.846100 163.634445,291.004089 
z"/>
<path fill="#080808" opacity="1.000000" stroke="none" 
	d="
M283.049072,180.826996 
	C296.519867,188.994980 308.307892,212.003708 303.381439,221.861969 
	C300.800049,218.966507 298.400146,216.382721 296.119934,213.697311 
	C288.378906,204.580795 290.152527,205.481430 281.354309,212.542511 
	C280.186401,213.479813 279.168365,214.881714 277.845551,215.273178 
	C276.405975,215.699203 274.323181,215.712143 273.223419,214.924347 
	C272.454498,214.373566 272.437744,212.035385 272.856842,210.746460 
	C273.404602,209.061844 274.714600,207.625183 275.696014,206.081406 
	C279.309784,200.396759 278.489716,198.681824 271.575104,198.112030 
	C267.269928,197.757263 262.933746,197.783615 258.612244,197.618668 
	C256.997101,197.557037 255.384171,197.437988 252.449142,197.269089 
	C256.564911,190.598099 260.011902,184.657867 263.892181,179.015610 
	C264.681274,177.868210 267.212219,177.173233 268.750488,177.425674 
	C273.455872,178.197845 278.068878,179.533035 283.049072,180.826996 
z"/>
<path fill="#070707" opacity="1.000000" stroke="none" 
	d="
M356.532043,323.734467 
	C346.301147,329.224579 336.984497,328.429260 329.369873,321.652466 
	C322.263428,315.327942 319.824219,304.973877 323.337860,296.046906 
	C326.586212,287.793915 334.116394,282.121735 341.725098,282.288055 
	C336.637054,289.456543 339.159851,297.524719 339.231262,305.207489 
	C339.244385,306.618011 342.816528,309.282135 344.433167,309.062775 
	C346.417847,308.793518 349.388702,306.270844 349.624268,304.427277 
	C350.315247,299.019196 350.190430,293.434723 349.688416,287.983490 
	C349.499115,285.927704 347.399994,284.047821 346.311188,282.310669 
	C353.200745,281.342285 361.533875,286.811707 365.118347,295.249634 
	C369.517059,305.604187 366.410492,316.215576 356.532043,323.734467 
z"/>
<path fill="#0B0B0B" opacity="1.000000" stroke="none" 
	d="
M202.338409,295.764832 
	C198.057495,296.877869 194.479752,296.009094 193.564178,291.954895 
	C193.054657,289.698700 194.043350,285.800018 195.714035,284.696747 
	C197.655579,283.414612 201.582581,283.432770 203.758270,284.577423 
	C207.903824,286.758423 207.165939,291.917694 202.338409,295.764832 
z"/>
<path fill="#0F0F0F" opacity="1.000000" stroke="none" 
	d="
M235.702454,287.744263 
	C237.360397,283.874115 240.096573,282.288544 243.767563,283.272400 
	C247.363953,284.236267 249.272812,286.850311 248.836914,290.695923 
	C248.432892,294.260345 244.991760,296.862549 241.357254,296.253357 
	C236.830200,295.494568 234.920151,292.656525 235.702454,287.744263 
z"/>
<path fill="#111111" opacity="1.000000" stroke="none" 
	d="
M163.504852,291.360657 
	C161.766327,294.846100 159.160751,296.873871 155.815323,295.463074 
	C153.873749,294.644287 151.539429,292.119507 151.445053,290.257812 
	C151.338730,288.160248 153.028580,285.163177 154.860504,283.938293 
	C159.134918,281.080261 163.503479,284.786896 163.504852,291.360657 
z"/>
</svg>